<?xml version="1.0" encoding="utf-8"?>
<!-- Generated by IcoMoon.io -->
<!DOCTYPE svg PUBLIC "-//W3C//DTD SVG 1.1//EN" "http://www.w3.org/Graphics/SVG/1.1/DTD/svg11.dtd">
<svg version="1.1" xmlns="http://www.w3.org/2000/svg" xmlns:xlink="http://www.w3.org/1999/xlink" width="25" height="32" viewBox="0 0 25 32">
<g>
</g>
	<path d="M9.911 27.161q1.357 0.571 2.5 0.571 2.339 0 3.857-0.732t2.179-2.018q0.679-1.25 0.679-3.232 0-2.036-0.732-3.214-1.036-1.679-2.518-2.25-1.429-0.571-4.411-0.571-1.321 0-1.804 0.179v2.571l-0.018 3.089 0.054 4.821q0 0.268 0.214 0.786zM9.661 13.839q0.768 0.125 1.946 0.125 3.125 0 4.714-1.161t1.589-4q0-2-1.518-3.339-1.5-1.339-4.554-1.339-0.929 0-2.321 0.232 0 0.786 0.036 1.375 0.125 2.179 0.107 4.982l-0.018 1.75q0 0.768 0.018 1.375zM0 29.714l0.036-1.679q0.804-0.161 1.214-0.214 1.375-0.214 2.196-0.554 0.304-0.482 0.375-0.911 0.161-1.179 0.161-3.464l-0.036-8.875q-0.089-4.571-0.161-7.214-0.018-1.554-0.196-1.946-0.018-0.071-0.214-0.214-0.321-0.214-1.232-0.268-0.536-0.036-2.036-0.232l-0.071-1.482 4.643-0.107 6.786-0.232 0.804-0.018q0.089 0 0.25-0.009t0.25-0.009q0.018 0 0.384 0.009t0.723 0.009h1.321q1.571 0 3.411 0.482 0.768 0.232 1.714 0.696 1.018 0.518 1.821 1.357 0.786 0.839 1.161 1.857t0.375 2.179q0 1.25-0.571 2.286t-1.696 1.875q-0.464 0.357-2.679 1.375 3.161 0.732 4.768 2.607 1.643 1.893 1.643 4.214 0 1.357-0.518 2.875-0.375 1.107-1.268 2.089-1.179 1.286-2.5 1.929-1.304 0.643-3.625 1.071-1.464 0.268-3.536 0.196l-3.518-0.071q-1.5-0.036-5.321 0.196-0.589 0.054-4.857 0.196z" fill="#333333" />
</svg>
