<?xml version="1.0" encoding="utf-8"?>
<!-- Generated by IcoMoon.io -->
<!DOCTYPE svg PUBLIC "-//W3C//DTD SVG 1.1//EN" "http://www.w3.org/Graphics/SVG/1.1/DTD/svg11.dtd">
<svg version="1.1" xmlns="http://www.w3.org/2000/svg" xmlns:xlink="http://www.w3.org/1999/xlink" width="32" height="32" viewBox="0 0 32 32">
<g>
</g>
	<path d="M11.429 19.429l4.571-2.286-4.571-2.286v4.571zM18.286 8.875v9.679l-9.143 4.571v-9.679zM23.429 16q0-2.643-1.304-4.875t-3.536-3.536-4.875-1.304-4.875 1.304-3.536 3.536-1.304 4.875 1.304 4.875 3.536 3.536 4.875 1.304 4.875-1.304 3.536-3.536 1.304-4.875zM27.429 16q0 3.732-1.839 6.884t-4.991 4.991-6.884 1.839-6.884-1.839-4.991-4.991-1.839-6.884 1.839-6.884 4.991-4.991 6.884-1.839 6.884 1.839 4.991 4.991 1.839 6.884z" fill="#333333" />
</svg>
