<?xml version="1.0" encoding="utf-8"?>
<!-- Generated by IcoMoon.io -->
<!DOCTYPE svg PUBLIC "-//W3C//DTD SVG 1.1//EN" "http://www.w3.org/Graphics/SVG/1.1/DTD/svg11.dtd">
<svg version="1.1" xmlns="http://www.w3.org/2000/svg" xmlns:xlink="http://www.w3.org/1999/xlink" width="32" height="32" viewBox="0 0 32 32">
<g>
</g>
	<path d="M32 21.143v3.429q0 0.232-0.17 0.402t-0.402 0.17h-24.571v3.429q0 0.232-0.17 0.402t-0.402 0.17q-0.214 0-0.429-0.179l-5.696-5.714q-0.161-0.161-0.161-0.393 0-0.25 0.161-0.411l5.714-5.714q0.161-0.161 0.411-0.161 0.232 0 0.402 0.17t0.17 0.402v3.429h24.571q0.232 0 0.402 0.17t0.17 0.402zM32 11.429q0 0.25-0.161 0.411l-5.714 5.714q-0.161 0.161-0.411 0.161-0.232 0-0.402-0.17t-0.17-0.402v-3.429h-24.571q-0.232 0-0.402-0.17t-0.17-0.402v-3.429q0-0.232 0.17-0.402t0.402-0.17h24.571v-3.429q0-0.25 0.161-0.411t0.411-0.161q0.214 0 0.429 0.179l5.696 5.696q0.161 0.161 0.161 0.411z" fill="#333333" />
</svg>
