<?xml version="1.0" encoding="utf-8"?>
<!-- Generated by IcoMoon.io -->
<!DOCTYPE svg PUBLIC "-//W3C//DTD SVG 1.1//EN" "http://www.w3.org/Graphics/SVG/1.1/DTD/svg11.dtd">
<svg version="1.1" xmlns="http://www.w3.org/2000/svg" xmlns:xlink="http://www.w3.org/1999/xlink" width="34" height="32" viewBox="0 0 34 32">
<g>
</g>
	<path d="M14.857 19.429v-2.286q0-0.25-0.161-0.411t-0.411-0.161h-3.429v-3.429q0-0.25-0.161-0.411t-0.411-0.161h-2.286q-0.25 0-0.411 0.161t-0.161 0.411v3.429h-3.429q-0.25 0-0.411 0.161t-0.161 0.411v2.286q0 0.25 0.161 0.411t0.411 0.161h3.429v3.429q0 0.25 0.161 0.411t0.411 0.161h2.286q0.25 0 0.411-0.161t0.161-0.411v-3.429h3.429q0.25 0 0.411-0.161t0.161-0.411zM25.143 20.571q0-0.946-0.67-1.616t-1.616-0.67-1.616 0.67-0.67 1.616 0.67 1.616 1.616 0.67 1.616-0.67 0.67-1.616zM29.714 16q0-0.946-0.67-1.616t-1.616-0.67-1.616 0.67-0.67 1.616 0.67 1.616 1.616 0.67 1.616-0.67 0.67-1.616zM34.286 18.286q0 3.786-2.679 6.464t-6.464 2.679q-3.429 0-6.036-2.286h-3.929q-2.607 2.286-6.036 2.286-3.786 0-6.464-2.679t-2.679-6.464 2.679-6.464 6.464-2.679h16q3.786 0 6.464 2.679t2.679 6.464z" fill="#333333" />
</svg>
