<?xml version="1.0" encoding="utf-8"?>
<!-- Generated by IcoMoon.io -->
<!DOCTYPE svg PUBLIC "-//W3C//DTD SVG 1.1//EN" "http://www.w3.org/Graphics/SVG/1.1/DTD/svg11.dtd">
<svg version="1.1" xmlns="http://www.w3.org/2000/svg" xmlns:xlink="http://www.w3.org/1999/xlink" width="32" height="32" viewBox="0 0 32 32">
<g>
</g>
	<path d="M16.571 24.214v-12.786h-5.714v12.786q0 0.446 0.321 0.688t0.821 0.241h3.429q0.5 0 0.821-0.241t0.321-0.688zM8.429 9.143h3.482l-2.25-2.875q-0.464-0.554-1.232-0.554-0.714 0-1.214 0.5t-0.5 1.214 0.5 1.214 1.214 0.5zM20.714 7.429q0-0.714-0.5-1.214t-1.214-0.5q-0.768 0-1.232 0.554l-2.232 2.875h3.464q0.714 0 1.214-0.5t0.5-1.214zM27.429 12v5.714q0 0.25-0.161 0.411t-0.411 0.161h-1.714v7.429q0 0.714-0.5 1.214t-1.214 0.5h-19.429q-0.714 0-1.214-0.5t-0.5-1.214v-7.429h-1.714q-0.25 0-0.411-0.161t-0.161-0.411v-5.714q0-0.25 0.161-0.411t0.411-0.161h7.857q-1.661 0-2.83-1.17t-1.17-2.83 1.17-2.83 2.83-1.17q1.911 0 3 1.375l2.286 2.946 2.286-2.946q1.089-1.375 3-1.375 1.661 0 2.83 1.17t1.17 2.83-1.17 2.83-2.83 1.17h7.857q0.25 0 0.411 0.161t0.161 0.411z" fill="#333333" />
</svg>
