<?xml version="1.0" encoding="utf-8"?>
<!-- Generated by IcoMoon.io -->
<!DOCTYPE svg PUBLIC "-//W3C//DTD SVG 1.1//EN" "http://www.w3.org/Graphics/SVG/1.1/DTD/svg11.dtd">
<svg version="1.1" xmlns="http://www.w3.org/2000/svg" xmlns:xlink="http://www.w3.org/1999/xlink" width="18" height="32" viewBox="0 0 18 32">
<g>
</g>
	<path d="M18.286 12.571v7.429q0 0.714-0.5 1.214t-1.214 0.5-1.214-0.5-0.5-1.214v-6.286h-1.143v16.286q0 0.821-0.589 1.411t-1.411 0.589-1.411-0.589-0.589-1.411v-8.286h-1.143v8.286q0 0.821-0.589 1.411t-1.411 0.589-1.411-0.589-0.589-1.411v-16.286h-1.143v6.286q0 0.714-0.5 1.214t-1.214 0.5-1.214-0.5-0.5-1.214v-7.429q0-1.429 1-2.429t2.429-1h11.429q1.429 0 2.429 1t1 2.429zM13.143 4.571q0 1.661-1.17 2.83t-2.83 1.17-2.83-1.17-1.17-2.83 1.17-2.83 2.83-1.17 2.83 1.17 1.17 2.83z" fill="#333333" />
</svg>
