<?xml version="1.0" encoding="utf-8"?>
<!-- Generated by IcoMoon.io -->
<!DOCTYPE svg PUBLIC "-//W3C//DTD SVG 1.1//EN" "http://www.w3.org/Graphics/SVG/1.1/DTD/svg11.dtd">
<svg version="1.1" xmlns="http://www.w3.org/2000/svg" xmlns:xlink="http://www.w3.org/1999/xlink" width="25" height="32" viewBox="0 0 25 32">
<g>
</g>
	<path d="M25.036 19.696q-0.571 1.429-1.357 2.464t-1.625 1.58-1.768 0.83-1.813 0.259-1.723-0.152-1.545-0.393-1.241-0.491-0.821-0.402l-0.304-0.179q-2.018 4.071-5.17 6.42t-6.866 2.366q-0.339 0-0.571-0.232t-0.232-0.571 0.232-0.563 0.571-0.223q3.089-0.018 5.759-1.92t4.491-5.259q-0.643 0.25-1.286 0.411t-1.482 0.232-1.625-0.045-1.661-0.509-1.643-1.054-1.509-1.786-1.33-2.607q2.036-0.839 3.821-1.018t2.991 0.134 2.223 1.009 1.58 1.375 1.009 1.464q0.946-2.339 1.411-5.196-0.125 0.018-0.321 0.045t-0.83 0.045-1.241-0.009-1.455-0.179-1.58-0.411-1.5-0.759-1.339-1.161-0.973-1.688-0.509-2.277q1.25-0.5 2.384-0.652t2.009 0.018 1.643 0.536 1.313 0.893 1 1.089 0.75 1.125 0.491 1 0.286 0.705l0.071 0.286q0.214-2.179 0.214-3.482-0.143-0.107-0.384-0.286t-0.875-0.795-1.134-1.277-0.964-1.661-0.589-2.009 0.214-2.268 1.25-2.473q1.304 0.446 2.277 1.098t1.509 1.366 0.857 1.518 0.366 1.589-0.009 1.527-0.232 1.366-0.339 1.107-0.304 0.75l-0.125 0.268q0.018 0.089 0.018 0.902t-0.018 1.277q0.054-0.125 0.179-0.33t0.545-0.768 0.902-1.036 1.268-0.991 1.634-0.795 2-0.259 2.366 0.429q-0.036 1.393-0.384 2.527t-0.893 1.866-1.241 1.277-1.455 0.813-1.509 0.429-1.429 0.17-1.205-0.018-0.83-0.080l-0.304-0.054q-0.411 2.625-1.304 5.054 0.107-0.125 0.321-0.33t0.884-0.732 1.384-0.938 1.777-0.75 2.098-0.357 2.304 0.42 2.446 1.384z" fill="#333333" />
</svg>
