<?xml version="1.0" encoding="utf-8"?>
<!-- Generated by IcoMoon.io -->
<!DOCTYPE svg PUBLIC "-//W3C//DTD SVG 1.1//EN" "http://www.w3.org/Graphics/SVG/1.1/DTD/svg11.dtd">
<svg version="1.1" xmlns="http://www.w3.org/2000/svg" xmlns:xlink="http://www.w3.org/1999/xlink" width="32" height="32" viewBox="0 0 32 32">
<g>
</g>
	<path d="M24.036 23.446q0-1.125-0.786-2.071t-1.839-0.946q-0.929 0-1.482 0.661t-0.554 1.679 0.652 1.696 1.866 0.679q0.893 0 1.518-0.482t0.625-1.214zM13.143 25.714q0 0.214-0.179 0.429l-5.696 5.696q-0.179 0.161-0.411 0.161-0.214 0-0.411-0.161l-5.714-5.714q-0.268-0.286-0.125-0.625 0.143-0.357 0.536-0.357h3.429v-24.571q0-0.25 0.161-0.411t0.411-0.161h3.429q0.25 0 0.411 0.161t0.161 0.411v24.571h3.429q0.25 0 0.411 0.161t0.161 0.411zM26.536 24.482q0 1.107-0.232 2.17t-0.732 2.036-1.214 1.705-1.759 1.17-2.277 0.438q-1.107 0-1.929-0.286-0.429-0.143-0.75-0.268l0.696-2.018q0.268 0.125 0.554 0.196 0.661 0.232 1.339 0.232 1.5 0 2.402-1.045t1.188-2.598h-0.036q-0.375 0.411-1.098 0.661t-1.509 0.25q-1.893 0-3.089-1.277t-1.196-3.080q0-1.875 1.286-3.179t3.232-1.304q2.196 0 3.661 1.688t1.464 4.509zM26 11.679v2.036h-8.375v-2.036h2.982v-7.714q0-0.125 0.009-0.339t0.009-0.304v-0.286h-0.036l-0.125 0.214q-0.143 0.232-0.464 0.554l-1.107 1.036-1.464-1.536 3.429-3.304h2.196v11.679h2.946z" fill="#333333" />
</svg>
