<?xml version="1.0" encoding="utf-8"?>
<!-- Generated by IcoMoon.io -->
<!DOCTYPE svg PUBLIC "-//W3C//DTD SVG 1.1//EN" "http://www.w3.org/Graphics/SVG/1.1/DTD/svg11.dtd">
<svg version="1.1" xmlns="http://www.w3.org/2000/svg" xmlns:xlink="http://www.w3.org/1999/xlink" width="32" height="32" viewBox="0 0 32 32">
<g>
</g>
	<path d="M1.446 2.304l0.964 0.482q0.357 0.089 3.768 0.089h2.321l0.339-0.054 2.054-0.018 13.643 0.018 0.607 0.036q0.25 0.018 0.5-0.125t0.375-0.286l0.125-0.143 0.75-0.018q0.268 0 0.5 0.018v1.866t0.018 2.348l0.018 1.786-0.018 1.036q0 0.571-0.071 0.911-0.696 0.268-1.214 0.321-0.446-0.768-0.964-2.286-0.143-0.429-0.277-1.116t-0.205-1.17-0.107-0.518q-0.232-0.268-0.482-0.339-0.125-0.036-1.045-0.036t-2.473 0.018-2.286 0.018q-1.679 0-2.268 0.089-0.179 1.732-0.143 2.429l0.018 2.714v-0.929l0.054 6.411-0.018 2.625q-0.018 0.821 0.196 1.518 0.875 0.446 1.589 0.571 0.036 0 0.321 0.089t0.786 0.232 0.768 0.214q0.536 0.143 0.893 0.321 0.089 0.804 0.089 0.893 0 0.179-0.054 0.518-0.25 0.018-0.607 0.018-1.964 0-3.339-0.179-1.286-0.143-4.25-0.143-1.464 0-4.161 0.232-0.804 0.089-1.25 0.089-0.036-0.393-0.036-0.464l-0.018-0.464v-0.161q0.375-0.589 1.411-0.875 2.482-0.679 2.839-0.893 0.161-0.375 0.214-1 0.107-2.446 0.107-7.732l-0.089-0.786q0-4.732-0.036-4.964-0.036-0.196-0.107-0.268-0.107-0.089-0.25-0.107-0.679-0.107-2.643-0.107-0.893 0-3.009 0.25t-2.366 0.429q-0.232 0.161-0.393 0.589t-0.393 1.339-0.429 1.5q-0.107 0.339-0.348 0.571t-0.366 0.232q-0.786-0.482-1-0.786v-6.839zM26.875 25.411q0.464 0.357 0.464 0.875t-0.464 0.875l-2.893 2.25q-0.464 0.357-0.795 0.196t-0.33-0.75v-1.429h-18.286v1.429q0 0.589-0.33 0.75t-0.795-0.196l-2.893-2.25q-0.464-0.357-0.464-0.875t0.464-0.875l2.893-2.25q0.464-0.357 0.795-0.196t0.33 0.75v1.429h18.286v-1.429q0-0.589 0.33-0.75t0.795 0.196z" fill="#333333" />
</svg>
