<?xml version="1.0" encoding="utf-8"?>
<!-- Generated by IcoMoon.io -->
<!DOCTYPE svg PUBLIC "-//W3C//DTD SVG 1.1//EN" "http://www.w3.org/Graphics/SVG/1.1/DTD/svg11.dtd">
<svg version="1.1" xmlns="http://www.w3.org/2000/svg" xmlns:xlink="http://www.w3.org/1999/xlink" width="32" height="32" viewBox="0 0 32 32">
<g>
</g>
	<path d="M22.393 11.375q0.286-1.518-0.375-2.357-0.929-1.161-3.339-0.804-0.304 0.054-0.732 0.223t-1.027 0.545-1.152 0.866-1.063 1.25-0.795 1.634q1.429-0.125 2.027 0.286t0.473 1.768q-0.089 0.929-0.929 2.554-0.768 1.393-1.268 1.768-0.786 0.571-1.554-0.25-0.411-0.429-0.67-1.152t-0.339-1.304-0.179-1.5-0.152-1.277q-0.411-2.304-0.607-2.929-0.214-0.661-0.634-1.232t-0.902-0.714q-1.018-0.286-2.268 0.446-0.964 0.571-2.438 1.893t-2.188 1.821v0.125q0.286 0.143 0.455 0.464t0.384 0.357q0.375 0.054 0.973-0.152t1.036-0.188 0.741 0.536q0.196 0.321 0.33 0.688t0.268 0.857 0.223 0.723q0.304 0.821 0.946 3.339 0.643 2.607 1.018 3.518 0.75 1.768 1.839 2.232 0.768 0.214 1.518 0.027t1.357-0.563q2.339-1.375 4.464-4.232 1.857-2.482 3.080-5.223t1.473-4.045zM27.429 7.429v17.143q0 2.125-1.509 3.634t-3.634 1.509h-17.143q-2.125 0-3.634-1.509t-1.509-3.634v-17.143q0-2.125 1.509-3.634t3.634-1.509h17.143q2.125 0 3.634 1.509t1.509 3.634z" fill="#333333" />
</svg>
