<?xml version="1.0" encoding="utf-8"?>
<!-- Generated by IcoMoon.io -->
<!DOCTYPE svg PUBLIC "-//W3C//DTD SVG 1.1//EN" "http://www.w3.org/Graphics/SVG/1.1/DTD/svg11.dtd">
<svg version="1.1" xmlns="http://www.w3.org/2000/svg" xmlns:xlink="http://www.w3.org/1999/xlink" width="32" height="32" viewBox="0 0 32 32">
<g>
</g>
	<path d="M15.143 15.536q0-0.768-0.732-1.179t-1.375-0.018q-0.768 0.357-0.759 1.295t0.777 1.259q0.696 0.411 1.446-0.071t0.643-1.286zM16.571 15.25q0.143 1.179-0.643 2.161t-1.964 1.089-2.125-0.714-1-2.018q-0.036-0.875 0.455-1.661t1.295-1.143q1.25-0.554 2.527 0.179t1.455 2.107zM19.643 8.268q-0.357 0.375-0.955 0.607t-0.946 0.286-1.134 0.143q-2.768 0.357-5.786 0-0.786-0.107-1.125-0.17t-0.938-0.286-0.973-0.58q0.232-0.339 0.643-0.554t0.714-0.277 0.839-0.152q3.536-0.625 7.286-0.018 0.589 0.089 0.911 0.152t0.768 0.286 0.696 0.562zM20.393 21.589q0-0.125 0.098-0.473t0.054-0.571-0.313-0.295q-2.875 1.893-6.518 1.893t-6.536-1.893l-0.214 0.107-0.089 0.214q0.464 2.75 0.732 3.75 0.839 1.446 3.643 1.929 4.446 0.821 7.643-0.946 0.607-0.339 0.875-0.92t0.402-1.527 0.223-1.268zM22.714 9.214q0.161-0.946-0.143-1.339-0.768-0.982-2.768-1.571-3.857-1.125-8.696-0.643-2.357 0.214-4.036 0.821-0.679 0.268-1.063 0.446t-0.839 0.607-0.527 0.964q0.143 1.214 0.339 2.464t0.518 3.054 0.429 2.446q0.018 0.089 0.089 0.554t0.125 0.643 0.214 0.482 0.393 0.5q1.875 1.429 5.071 1.786 4.625 0.5 7.857-1.125 0.429-0.232 0.705-0.411t0.554-0.518 0.348-0.714q0.857-4.768 1.429-8.446zM27.429 7.429v17.143q0 2.125-1.509 3.634t-3.634 1.509h-17.143q-2.125 0-3.634-1.509t-1.509-3.634v-17.143q0-2.125 1.509-3.634t3.634-1.509h17.143q2.125 0 3.634 1.509t1.509 3.634z" fill="#dddddd" />
</svg>
