<?xml version="1.0" encoding="utf-8"?>
<!-- Generated by IcoMoon.io -->
<!DOCTYPE svg PUBLIC "-//W3C//DTD SVG 1.1//EN" "http://www.w3.org/Graphics/SVG/1.1/DTD/svg11.dtd">
<svg version="1.1" xmlns="http://www.w3.org/2000/svg" xmlns:xlink="http://www.w3.org/1999/xlink" width="18" height="32" viewBox="0 0 18 32">
<g>
</g>
	<path d="M18.214 20.304v6.554q0 0.25-0.161 0.411t-0.411 0.161h-17.071q-0.25 0-0.411-0.161t-0.161-0.411v-2.679q0-0.232 0.17-0.402t0.402-0.17h1.732v-6.839h-1.696q-0.25 0-0.411-0.17t-0.161-0.402v-2.339q0-0.25 0.161-0.411t0.411-0.161h1.696v-3.982q0-3.054 2.205-5.036t5.616-1.982q3.304 0 5.982 2.232 0.161 0.143 0.179 0.366t-0.125 0.402l-1.839 2.268q-0.161 0.196-0.393 0.214-0.232 0.036-0.411-0.125-0.089-0.089-0.464-0.339t-1.232-0.571-1.661-0.321q-1.518 0-2.446 0.839t-0.929 2.196v3.839h5.446q0.232 0 0.402 0.161t0.17 0.411v2.339q0 0.232-0.17 0.402t-0.402 0.17h-5.446v6.768h7.393v-3.232q0-0.232 0.161-0.402t0.411-0.17h2.893q0.25 0 0.411 0.17t0.161 0.402z" fill="#dddddd" />
</svg>
