<?xml version="1.0" encoding="utf-8"?>
<!-- Generated by IcoMoon.io -->
<!DOCTYPE svg PUBLIC "-//W3C//DTD SVG 1.1//EN" "http://www.w3.org/Graphics/SVG/1.1/DTD/svg11.dtd">
<svg version="1.1" xmlns="http://www.w3.org/2000/svg" xmlns:xlink="http://www.w3.org/1999/xlink" width="32" height="32" viewBox="0 0 32 32">
<g>
</g>
	<path d="M12.107 28.446q0 0.679-0.179 1.268h-6.786q-1.696 0-3.063-1.009t-1.848-2.634q0.429-0.804 1.232-1.384t1.786-0.884 1.911-0.429 1.911-0.125q0.571 0 0.875 0.036 0.107 0.071 0.545 0.375t0.589 0.411 0.554 0.411 0.571 0.455 0.491 0.455 0.473 0.527 0.375 0.545 0.313 0.616 0.17 0.643 0.080 0.723zM6.875 22.179q-4.179 0.125-6.875 1.518v-7.732q1.839 2.107 4.875 2.107 0.571 0 1.25-0.089-0.375 1.089-0.375 1.536 0 1.196 1.125 2.661zM9.964 13.054q0 1.786-0.777 2.866t-2.509 1.080q-0.911 0-1.732-0.464t-1.393-1.205-1-1.67-0.634-1.857-0.205-1.768q0-1.714 0.92-2.946t2.58-1.232q1.179 0 2.125 0.732t1.5 1.857 0.839 2.321 0.286 2.286zM27.429 11.429v13.143q0 2.125-1.509 3.634t-3.634 1.509h-8.357q0.696-1.304 0.696-2.804 0-1.179-0.393-2.188t-0.991-1.661-1.286-1.268-1.286-1.063-0.991-0.973-0.393-1.063q0-0.643 0.411-1.214t1-1.098 1.17-1.152 0.991-1.661 0.411-2.339-0.473-2.598-1.348-2.116q-0.107-0.107-0.25-0.196t-0.223-0.134-0.179-0.17-0.188-0.304h2.411l2.411-1.143h-7.804q-2.464 0-4.366 0.688t-3.259 2.384q0-2.25 1.446-3.804t3.696-1.554h17.143q2.125 0 3.634 1.509t1.509 3.634v1.714h-4.571v-4.571h-2.286v4.571h-4.571v2.286h4.571v4.571h2.286v-4.571h4.571z" fill="#dddddd" />
</svg>
