<?xml version="1.0" encoding="utf-8"?>
<!-- Generated by IcoMoon.io -->
<!DOCTYPE svg PUBLIC "-//W3C//DTD SVG 1.1//EN" "http://www.w3.org/Graphics/SVG/1.1/DTD/svg11.dtd">
<svg version="1.1" xmlns="http://www.w3.org/2000/svg" xmlns:xlink="http://www.w3.org/1999/xlink" width="34" height="32" viewBox="0 0 34 32">
<g>
</g>
	<path d="M6.857 20.857v1.714q0 0.286-0.286 0.286h-1.714q-0.286 0-0.286-0.286v-1.714q0-0.286 0.286-0.286h1.714q0.286 0 0.286 0.286zM9.143 16.286v1.714q0 0.286-0.286 0.286h-4q-0.286 0-0.286-0.286v-1.714q0-0.286 0.286-0.286h4q0.286 0 0.286 0.286zM6.857 11.714v1.714q0 0.286-0.286 0.286h-1.714q-0.286 0-0.286-0.286v-1.714q0-0.286 0.286-0.286h1.714q0.286 0 0.286 0.286zM25.143 20.857v1.714q0 0.286-0.286 0.286h-15.429q-0.286 0-0.286-0.286v-1.714q0-0.286 0.286-0.286h15.429q0.286 0 0.286 0.286zM13.714 16.286v1.714q0 0.286-0.286 0.286h-1.714q-0.286 0-0.286-0.286v-1.714q0-0.286 0.286-0.286h1.714q0.286 0 0.286 0.286zM11.429 11.714v1.714q0 0.286-0.286 0.286h-1.714q-0.286 0-0.286-0.286v-1.714q0-0.286 0.286-0.286h1.714q0.286 0 0.286 0.286zM18.286 16.286v1.714q0 0.286-0.286 0.286h-1.714q-0.286 0-0.286-0.286v-1.714q0-0.286 0.286-0.286h1.714q0.286 0 0.286 0.286zM16 11.714v1.714q0 0.286-0.286 0.286h-1.714q-0.286 0-0.286-0.286v-1.714q0-0.286 0.286-0.286h1.714q0.286 0 0.286 0.286zM22.857 16.286v1.714q0 0.286-0.286 0.286h-1.714q-0.286 0-0.286-0.286v-1.714q0-0.286 0.286-0.286h1.714q0.286 0 0.286 0.286zM29.714 20.857v1.714q0 0.286-0.286 0.286h-1.714q-0.286 0-0.286-0.286v-1.714q0-0.286 0.286-0.286h1.714q0.286 0 0.286 0.286zM20.571 11.714v1.714q0 0.286-0.286 0.286h-1.714q-0.286 0-0.286-0.286v-1.714q0-0.286 0.286-0.286h1.714q0.286 0 0.286 0.286zM25.143 11.714v1.714q0 0.286-0.286 0.286h-1.714q-0.286 0-0.286-0.286v-1.714q0-0.286 0.286-0.286h1.714q0.286 0 0.286 0.286zM29.714 11.714v6.286q0 0.286-0.286 0.286h-4q-0.286 0-0.286-0.286v-1.714q0-0.286 0.286-0.286h2v-4.286q0-0.286 0.286-0.286h1.714q0.286 0 0.286 0.286zM32 25.143v-16h-29.714v16h29.714zM34.286 9.143v16q0 0.946-0.67 1.616t-1.616 0.67h-29.714q-0.946 0-1.616-0.67t-0.67-1.616v-16q0-0.946 0.67-1.616t1.616-0.67h29.714q0.946 0 1.616 0.67t0.67 1.616z" fill="#dddddd" />
</svg>
