<?xml version="1.0" encoding="utf-8"?>
<!-- Generated by IcoMoon.io -->
<!DOCTYPE svg PUBLIC "-//W3C//DTD SVG 1.1//EN" "http://www.w3.org/Graphics/SVG/1.1/DTD/svg11.dtd">
<svg version="1.1" xmlns="http://www.w3.org/2000/svg" xmlns:xlink="http://www.w3.org/1999/xlink" width="32" height="32" viewBox="0 0 32 32">
<g>
</g>
	<path d="M13.714 29.714h16v-11.429h-7.429q-0.714 0-1.214-0.5t-0.5-1.214v-7.429h-6.857v20.571zM18.286 4v-1.143q0-0.232-0.17-0.402t-0.402-0.17h-12.571q-0.232 0-0.402 0.17t-0.17 0.402v1.143q0 0.232 0.17 0.402t0.402 0.17h12.571q0.232 0 0.402-0.17t0.17-0.402zM22.857 16h5.339l-5.339-5.339v5.339zM32 18.286v12q0 0.714-0.5 1.214t-1.214 0.5h-17.143q-0.714 0-1.214-0.5t-0.5-1.214v-2.857h-9.714q-0.714 0-1.214-0.5t-0.5-1.214v-24q0-0.714 0.5-1.214t1.214-0.5h19.429q0.714 0 1.214 0.5t0.5 1.214v5.857q0.375 0.232 0.643 0.5l7.286 7.286q0.5 0.5 0.857 1.357t0.357 1.571z" fill="#dddddd" />
</svg>
