<?xml version="1.0" encoding="utf-8"?>
<!-- Generated by IcoMoon.io -->
<!DOCTYPE svg PUBLIC "-//W3C//DTD SVG 1.1//EN" "http://www.w3.org/Graphics/SVG/1.1/DTD/svg11.dtd">
<svg version="1.1" xmlns="http://www.w3.org/2000/svg" xmlns:xlink="http://www.w3.org/1999/xlink" width="32" height="32" viewBox="0 0 32 32">
<g>
</g>
	<path d="M18.286 8.071l5.643 5.643-10.214 10.214-5.643-5.643zM14.518 25.554l11.036-11.036q0.339-0.339 0.339-0.804t-0.339-0.804l-6.464-6.464q-0.321-0.321-0.804-0.321t-0.804 0.321l-11.036 11.036q-0.339 0.339-0.339 0.804t0.339 0.804l6.464 6.464q0.321 0.321 0.804 0.321t0.804-0.321zM30.393 14.179l-16.196 16.214q-0.661 0.661-1.616 0.661t-1.616-0.661l-2.25-2.25q1-1 1-2.429t-1-2.429-2.429-1-2.429 1l-2.232-2.25q-0.661-0.661-0.661-1.616t0.661-1.616l16.196-16.179q0.661-0.661 1.616-0.661t1.616 0.661l2.232 2.232q-1 1-1 2.429t1 2.429 2.429 1 2.429-1l2.25 2.232q0.661 0.661 0.661 1.616t-0.661 1.616z" fill="#dddddd" />
</svg>
