<?xml version="1.0" encoding="utf-8"?>
<!-- Generated by IcoMoon.io -->
<!DOCTYPE svg PUBLIC "-//W3C//DTD SVG 1.1//EN" "http://www.w3.org/Graphics/SVG/1.1/DTD/svg11.dtd">
<svg version="1.1" xmlns="http://www.w3.org/2000/svg" xmlns:xlink="http://www.w3.org/1999/xlink" width="32" height="32" viewBox="0 0 32 32">
<g>
</g>
	<path d="M11.429 25.143q0-0.929-0.679-1.607t-1.607-0.679-1.607 0.679-0.679 1.607 0.679 1.607 1.607 0.679 1.607-0.679 0.679-1.607zM4.571 16h6.857v-4.571h-2.821q-0.232 0-0.393 0.161l-3.482 3.482q-0.161 0.161-0.161 0.393v0.536zM27.429 25.143q0-0.929-0.679-1.607t-1.607-0.679-1.607 0.679-0.679 1.607 0.679 1.607 1.607 0.679 1.607-0.679 0.679-1.607zM32 5.714v18.286q0 0.268-0.071 0.473t-0.241 0.33-0.295 0.205-0.42 0.107-0.402 0.036-0.455 0-0.402-0.009q0 1.893-1.339 3.232t-3.232 1.339-3.232-1.339-1.339-3.232h-6.857q0 1.893-1.339 3.232t-3.232 1.339-3.232-1.339-1.339-3.232h-1.143q-0.054 0-0.402 0.009t-0.455 0-0.402-0.036-0.42-0.107-0.295-0.205-0.241-0.33-0.071-0.473q0-0.464 0.339-0.804t0.804-0.339v-5.714q0-0.143-0.009-0.625t0-0.679 0.045-0.616 0.116-0.661 0.25-0.545 0.402-0.536l3.536-3.536q0.339-0.339 0.902-0.571t1.045-0.232h2.857v-3.429q0-0.464 0.339-0.804t0.804-0.339h18.286q0.464 0 0.804 0.339t0.339 0.804z" fill="#dddddd" />
</svg>
