<?xml version="1.0" encoding="utf-8"?>
<!-- Generated by IcoMoon.io -->
<!DOCTYPE svg PUBLIC "-//W3C//DTD SVG 1.1//EN" "http://www.w3.org/Graphics/SVG/1.1/DTD/svg11.dtd">
<svg version="1.1" xmlns="http://www.w3.org/2000/svg" xmlns:xlink="http://www.w3.org/1999/xlink" width="21" height="32" viewBox="0 0 21 32">
<g>
</g>
	<path d="M13.714 6.286v19.429q0 0.464-0.339 0.804t-0.804 0.339-0.804-0.339l-5.946-5.946h-4.679q-0.464 0-0.804-0.339t-0.339-0.804v-6.857q0-0.464 0.339-0.804t0.804-0.339h4.679l5.946-5.946q0.339-0.339 0.804-0.339t0.804 0.339 0.339 0.804zM20.571 16q0 1.357-0.759 2.527t-2.009 1.67q-0.179 0.089-0.446 0.089-0.464 0-0.804-0.33t-0.339-0.813q0-0.375 0.214-0.634t0.518-0.446 0.607-0.411 0.518-0.634 0.214-1.018-0.214-1.018-0.518-0.634-0.607-0.411-0.518-0.446-0.214-0.634q0-0.482 0.339-0.813t0.804-0.33q0.268 0 0.446 0.089 1.25 0.482 2.009 1.661t0.759 2.536z" fill="#dddddd" />
</svg>
