<?xml version="1.0" encoding="utf-8"?>
<!-- Generated by IcoMoon.io -->
<!DOCTYPE svg PUBLIC "-//W3C//DTD SVG 1.1//EN" "http://www.w3.org/Graphics/SVG/1.1/DTD/svg11.dtd">
<svg version="1.1" xmlns="http://www.w3.org/2000/svg" xmlns:xlink="http://www.w3.org/1999/xlink" width="32" height="32" viewBox="0 0 32 32">
<g>
</g>
	<path d="M12.232 13.661q0-0.018-2.25-3.964-0.375-0.607-0.929-0.607h-3.286q-0.321 0-0.464 0.196-0.125 0.214 0.018 0.518l2.232 3.857v0.018l-3.5 6.179q-0.161 0.25 0 0.5 0.143 0.232 0.429 0.232h3.304q0.554 0 0.893-0.643zM23.375 4.786q-0.125-0.214-0.429-0.214h-3.339q-0.536 0-0.875 0.625l-7.339 13.018q0.018 0.036 4.679 8.589 0.357 0.625 0.929 0.625h3.286q0.321 0 0.446-0.214 0.143-0.232-0.018-0.5l-4.643-8.5v-0.018l7.304-12.911q0.143-0.286 0-0.5zM27.429 7.429v17.143q0 2.125-1.509 3.634t-3.634 1.509h-17.143q-2.125 0-3.634-1.509t-1.509-3.634v-17.143q0-2.125 1.509-3.634t3.634-1.509h17.143q2.125 0 3.634 1.509t1.509 3.634z" fill="#dddddd" />
</svg>
