<?xml version="1.0" encoding="utf-8"?>
<!-- Generated by IcoMoon.io -->
<!DOCTYPE svg PUBLIC "-//W3C//DTD SVG 1.1//EN" "http://www.w3.org/Graphics/SVG/1.1/DTD/svg11.dtd">
<svg version="1.1" xmlns="http://www.w3.org/2000/svg" xmlns:xlink="http://www.w3.org/1999/xlink" width="32" height="32" viewBox="0 0 32 32">
<g>
</g>
	<path d="M22.929 16.018q0-0.482-0.321-0.804l-1.625-1.625q-0.321-0.321-0.804-0.321t-0.804 0.321l-3.375 3.375v-8.964q0-0.464-0.339-0.804t-0.804-0.339h-2.286q-0.464 0-0.804 0.339t-0.339 0.804v8.964l-3.375-3.375q-0.339-0.339-0.804-0.339t-0.804 0.339l-1.625 1.625q-0.321 0.321-0.321 0.804t0.321 0.804l8.089 8.089q0.321 0.321 0.804 0.321t0.804-0.321l8.089-8.089q0.321-0.321 0.321-0.804zM27.429 16q0 3.732-1.839 6.884t-4.991 4.991-6.884 1.839-6.884-1.839-4.991-4.991-1.839-6.884 1.839-6.884 4.991-4.991 6.884-1.839 6.884 1.839 4.991 4.991 1.839 6.884z" fill="#000000" />
</svg>
