<?xml version="1.0" encoding="utf-8"?>
<!-- Generated by IcoMoon.io -->
<!DOCTYPE svg PUBLIC "-//W3C//DTD SVG 1.1//EN" "http://www.w3.org/Graphics/SVG/1.1/DTD/svg11.dtd">
<svg version="1.1" xmlns="http://www.w3.org/2000/svg" xmlns:xlink="http://www.w3.org/1999/xlink" width="30" height="32" viewBox="0 0 30 32">
<g>
</g>
	<path d="M26.482 18.286l-10.482 10.482q-0.929 0.946-2.277 0.946t-2.295-0.946l-10.482-10.482q-0.946-0.946-0.946-2.286t0.946-2.286l10.482-10.482q0.946-0.946 2.286-0.946t2.286 0.946l4.732 4.732-7.107 7.125-3.357-3.357q-0.75-0.75-1.768-0.75-1.054 0-1.786 0.732l-2.143 2.161q-0.75 0.714-0.75 1.768 0 1.036 0.75 1.786l7.25 7.286q0.536 0.5 1.196 0.661l0.107 0.071h0.5q1.071 0 1.768-0.732l11.054-11.054 0.036 0.054q0.946 0.946 0.946 2.286t-0.946 2.286zM25.107 7.107l2.143 2.143q0.25 0.268 0.25 0.643t-0.25 0.643l-13.036 13.036q-0.304 0.268-0.661 0.268v0q-0.071 0-0.107-0.018-0.321-0.036-0.536-0.25l-7.268-7.286q-0.25-0.268-0.25-0.643t0.25-0.625l2.161-2.143q0.232-0.268 0.625-0.268t0.643 0.268l4.5 4.5 10.25-10.268q0.268-0.268 0.643-0.268t0.643 0.268z" fill="#000000" />
</svg>
