<?xml version="1.0" encoding="utf-8"?>
<!-- Generated by IcoMoon.io -->
<!DOCTYPE svg PUBLIC "-//W3C//DTD SVG 1.1//EN" "http://www.w3.org/Graphics/SVG/1.1/DTD/svg11.dtd">
<svg version="1.1" xmlns="http://www.w3.org/2000/svg" xmlns:xlink="http://www.w3.org/1999/xlink" width="32" height="32" viewBox="0 0 32 32">
<g>
</g>
	<path d="M25.143 17.143q0-1.5-0.571-3.268t-1.143-3.464-0.571-2.982v-0.571h-11.429v0.571q0 0.625-0.214 1.205t-0.661 1.116-0.821 0.893-0.964 0.875q-0.161 0.143-0.25 0.214-1.446 1.286-2.589 2-0.393 0.25-1.214 0.679-0.054 0.018-0.402 0.188t-0.643 0.33-0.634 0.357-0.545 0.384-0.205 0.33q0 1.268 0.545 2.062t1.741 0.795q0.768 0 1.509-0.268t1.214-0.589 0.982-0.589 0.866-0.268v10.286q0 0.893 0.688 1.589t1.598 0.696q0.929 0 1.607-0.679t0.679-1.607v-5.911q0.821 0.625 1.839 0.625 1.232 0 2.125-0.946 0.571 0.321 1.232 0.321t1.313-0.313 0.938-0.848q0.429 0.071 1 0.071 1.518 0 2.25-0.866t0.732-2.42zM22.857 3.429q0-0.464-0.339-0.804t-0.804-0.339-0.804 0.339-0.339 0.804 0.339 0.804 0.804 0.339 0.804-0.339 0.339-0.804zM27.429 17.071q0 2.536-1.384 4.107t-3.884 1.554l-0.089-0.018q-1.357 1.089-3.179 1.089-0.393 0-0.768-0.054-0.964 0.536-2.125 0.661v3.018q0 1.875-1.357 3.223t-3.232 1.348q-1.839 0-3.196-1.357t-1.357-3.214v-6.679q-0.964 0.393-2.286 0.393-2.161 0-3.366-1.455t-1.205-3.688q0-0.679 0.313-1.241t0.884-0.982 1.125-0.723 1.286-0.661 1.107-0.589q0.982-0.625 2.304-1.786 0.054-0.036 0.304-0.25t0.384-0.339 0.384-0.366 0.402-0.429 0.321-0.402 0.25-0.42 0.080-0.384v-5.143q0-0.946 0.67-1.616t1.616-0.67h11.429q0.946 0 1.616 0.67t0.67 1.616v5.143q0 1.054 1.054 3.982 1.232 3.393 1.232 5.661z" fill="#000000" />
</svg>
