<?xml version="1.0" encoding="utf-8"?>
<!-- Generated by IcoMoon.io -->
<!DOCTYPE svg PUBLIC "-//W3C//DTD SVG 1.1//EN" "http://www.w3.org/Graphics/SVG/1.1/DTD/svg11.dtd">
<svg version="1.1" xmlns="http://www.w3.org/2000/svg" xmlns:xlink="http://www.w3.org/1999/xlink" width="18" height="32" viewBox="0 0 18 32">
<g>
</g>
	<path d="M0 29.679l0.304-1.518q0.071-0.018 1.375-0.357 1.357-0.339 2.071-0.696 0.518-0.661 0.732-1.804l0.482-2.482 1-4.786 0.214-1.143q0.143-0.786 0.304-1.509t0.286-1.196 0.223-0.83 0.161-0.545 0.063-0.205l0.518-2.804 0.286-1.125 0.393-2.411 0.143-0.893v-0.679q-0.732-0.393-2.571-0.5-0.5-0.036-0.679-0.071l0.339-1.839 5.661 0.25q0.696 0.036 1.304 0.036 1.179 0 3.821-0.161 0.589-0.036 1.214-0.080t0.643-0.045q-0.036 0.339-0.107 0.679-0.125 0.518-0.232 0.911-0.982 0.339-1.946 0.554-1.143 0.286-1.804 0.554-0.214 0.554-0.429 1.571-0.161 0.786-0.232 1.464-0.786 3.554-1.179 5.464l-1.089 5.554-0.679 2.821-0.768 4.196-0.214 0.804q-0.036 0.125 0.018 0.482 1.143 0.268 2.125 0.375 0.643 0.089 1.179 0.179-0.018 0.518-0.125 1.036-0.125 0.554-0.161 0.732-0.321 0-0.411 0.018-0.429 0.036-0.75 0.036-0.161 0-0.5-0.054-0.339-0.071-2.589-0.304l-3.536-0.036q-0.732-0.018-3.107 0.196-1.321 0.125-1.75 0.161z" fill="#000000" />
</svg>
