<?xml version="1.0" encoding="utf-8"?>
<!-- Generated by IcoMoon.io -->
<!DOCTYPE svg PUBLIC "-//W3C//DTD SVG 1.1//EN" "http://www.w3.org/Graphics/SVG/1.1/DTD/svg11.dtd">
<svg version="1.1" xmlns="http://www.w3.org/2000/svg" xmlns:xlink="http://www.w3.org/1999/xlink" width="32" height="32" viewBox="0 0 32 32">
<g>
</g>
	<path d="M27.429 14.857v2.286q0 3.589-1.759 6.464t-4.893 4.491-7.063 1.616-7.063-1.616-4.893-4.491-1.759-6.464v-2.286q0-0.464 0.339-0.804t0.804-0.339h6.857q0.464 0 0.804 0.339t0.339 0.804v2.286q0 0.929 0.42 1.607t0.955 1.018 1.268 0.536 1.143 0.232 0.786 0.036 0.786-0.036 1.143-0.232 1.268-0.536 0.955-1.018 0.42-1.607v-2.286q0-0.464 0.339-0.804t0.804-0.339h6.857q0.464 0 0.804 0.339t0.339 0.804zM9.143 3.429v6.857q0 0.464-0.339 0.804t-0.804 0.339h-6.857q-0.464 0-0.804-0.339t-0.339-0.804v-6.857q0-0.464 0.339-0.804t0.804-0.339h6.857q0.464 0 0.804 0.339t0.339 0.804zM27.429 3.429v6.857q0 0.464-0.339 0.804t-0.804 0.339h-6.857q-0.464 0-0.804-0.339t-0.339-0.804v-6.857q0-0.464 0.339-0.804t0.804-0.339h6.857q0.464 0 0.804 0.339t0.339 0.804z" fill="#000000" />
</svg>
