<?xml version="1.0" encoding="utf-8"?>
<!-- Generated by IcoMoon.io -->
<!DOCTYPE svg PUBLIC "-//W3C//DTD SVG 1.1//EN" "http://www.w3.org/Graphics/SVG/1.1/DTD/svg11.dtd">
<svg version="1.1" xmlns="http://www.w3.org/2000/svg" xmlns:xlink="http://www.w3.org/1999/xlink" width="32" height="32" viewBox="0 0 32 32">
<g>
</g>
	<path d="M20.054 25.161v-3.232q-1.571 1-3.107 1-0.911 0-1.571-0.411-0.518-0.304-0.696-0.804-0.196-0.536-0.196-2.304v-5.268h4.893v-3.232h-4.893v-5.196h-2.929q-0.196 1.607-0.714 2.625t-1.393 1.768q-0.857 0.714-2.071 1.125v2.911h2.268v7.214q0 1.393 0.304 2.161 0.304 0.75 1.054 1.393 0.768 0.661 1.857 1.018 1.107 0.357 2.5 0.357 1.196 0 2.304-0.25 1.018-0.232 2.393-0.875zM27.429 7.429v17.143q0 2.125-1.509 3.634t-3.634 1.509h-17.143q-2.125 0-3.634-1.509t-1.509-3.634v-17.143q0-2.125 1.509-3.634t3.634-1.509h17.143q2.125 0 3.634 1.509t1.509 3.634z" fill="#000000" />
</svg>
