<?xml version="1.0" encoding="utf-8"?>
<!-- Generated by IcoMoon.io -->
<!DOCTYPE svg PUBLIC "-//W3C//DTD SVG 1.1//EN" "http://www.w3.org/Graphics/SVG/1.1/DTD/svg11.dtd">
<svg version="1.1" xmlns="http://www.w3.org/2000/svg" xmlns:xlink="http://www.w3.org/1999/xlink" width="30" height="32" viewBox="0 0 30 32">
<g>
</g>
	<path d="M18.268 21.196l1.821 3.643q-1.036 3.196-3.75 5.179t-6.054 1.982q-2.786 0-5.152-1.384t-3.75-3.75-1.384-5.152q0-3.232 1.866-5.893t4.902-3.768l0.304 2.339q-2.179 0.964-3.482 2.955t-1.304 4.366q0 3.304 2.348 5.652t5.652 2.348q2.25 0 4.152-1.161t2.946-3.134 0.884-4.223zM28.054 22.982l1.036 2.036-4.571 2.286q-0.232 0.125-0.518 0.125-0.714 0-1.018-0.625l-4.268-8.518h-8.429q-0.429 0-0.759-0.295t-0.384-0.723l-1.714-13.911q-0.036-0.286 0.107-0.75 0.25-0.911 1.018-1.473t1.732-0.563q1.179 0 2.018 0.839t0.839 2.018q0 1.232-0.929 2.098t-2.143 0.741l0.661 5.161h7.554v2.286h-7.268l0.286 2.286h8.125q0.714 0 1.018 0.625l4.071 8.125z" fill="#000000" />
</svg>
