<?xml version="1.0" encoding="utf-8"?>
<!-- Generated by IcoMoon.io -->
<!DOCTYPE svg PUBLIC "-//W3C//DTD SVG 1.1//EN" "http://www.w3.org/Graphics/SVG/1.1/DTD/svg11.dtd">
<svg version="1.1" xmlns="http://www.w3.org/2000/svg" xmlns:xlink="http://www.w3.org/1999/xlink" width="32" height="32" viewBox="0 0 32 32">
<g>
</g>
	<path d="M32 24v2.286q0 0.464-0.339 0.804t-0.804 0.339h-29.714q-0.464 0-0.804-0.339t-0.339-0.804v-2.286q0-0.464 0.339-0.804t0.804-0.339h29.714q0.464 0 0.804 0.339t0.339 0.804zM25.143 17.143v2.286q0 0.464-0.339 0.804t-0.804 0.339h-22.857q-0.464 0-0.804-0.339t-0.339-0.804v-2.286q0-0.464 0.339-0.804t0.804-0.339h22.857q0.464 0 0.804 0.339t0.339 0.804zM29.714 10.286v2.286q0 0.464-0.339 0.804t-0.804 0.339h-27.429q-0.464 0-0.804-0.339t-0.339-0.804v-2.286q0-0.464 0.339-0.804t0.804-0.339h27.429q0.464 0 0.804 0.339t0.339 0.804zM22.857 3.429v2.286q0 0.464-0.339 0.804t-0.804 0.339h-20.571q-0.464 0-0.804-0.339t-0.339-0.804v-2.286q0-0.464 0.339-0.804t0.804-0.339h20.571q0.464 0 0.804 0.339t0.339 0.804z" fill="#cccccc" />
</svg>
