<?xml version="1.0" encoding="utf-8"?>
<!-- Generated by IcoMoon.io -->
<!DOCTYPE svg PUBLIC "-//W3C//DTD SVG 1.1//EN" "http://www.w3.org/Graphics/SVG/1.1/DTD/svg11.dtd">
<svg version="1.1" xmlns="http://www.w3.org/2000/svg" xmlns:xlink="http://www.w3.org/1999/xlink" width="11" height="32" viewBox="0 0 11 32">
<g>
</g>
	<path d="M9.143 22.286v4q0 0.464-0.339 0.804t-0.804 0.339h-4.571q-0.464 0-0.804-0.339t-0.339-0.804v-4q0-0.464 0.339-0.804t0.804-0.339h4.571q0.464 0 0.804 0.339t0.339 0.804zM9.679 3.429l-0.5 13.714q-0.018 0.464-0.366 0.804t-0.813 0.339h-4.571q-0.464 0-0.813-0.339t-0.366-0.804l-0.5-13.714q-0.018-0.464 0.313-0.804t0.795-0.339h5.714q0.464 0 0.795 0.339t0.313 0.804z" fill="#cccccc" />
</svg>
