<?xml version="1.0" encoding="utf-8"?>
<!-- Generated by IcoMoon.io -->
<!DOCTYPE svg PUBLIC "-//W3C//DTD SVG 1.1//EN" "http://www.w3.org/Graphics/SVG/1.1/DTD/svg11.dtd">
<svg version="1.1" xmlns="http://www.w3.org/2000/svg" xmlns:xlink="http://www.w3.org/1999/xlink" width="30" height="32" viewBox="0 0 30 32">
<g>
</g>
	<path d="M12.946 9.982l-3.036 8.036q1.304 0.018 2.741 0.036t2.125 0.027 0.938 0.009l0.518-0.036q-0.571-1.696-1.643-4.304-0.946-2.357-1.643-3.768zM0.375 29.714h-0.375l0.036-1.411q0.393-0.125 1.429-0.321 1.589-0.286 1.964-0.554 0.357-0.286 0.857-1.214l4.232-11 5-12.929h2.286l0.196 0.375 3.661 8.571q1.839 4.321 2.214 5.304 0.696 1.821 1.714 4.196 0.464 1.036 1.161 2.929 0.429 1.196 1.161 2.661 0.393 0.875 0.625 1.018 0.393 0.339 1.232 0.411 0.839 0.107 1.839 0.482 0.107 0.696 0.107 1.018 0 0.25-0.018 0.464-1.429 0-3.429-0.143-1.661-0.143-3.375-0.143-1.411 0-2.411 0.036l-3.571 0.196-1.036 0.036q0-0.804 0.071-1.393l2.339-0.5q1-0.232 1.214-0.411 0.214-0.214 0.214-0.482t-0.107-0.571l-0.839-2.036-1.643-4.071-8.036-0.036q-0.518 1.161-1.857 4.893-0.411 1.143-0.411 1.5 0 0.554 0.304 0.768 0.464 0.375 1.839 0.571 0.054 0 0.241 0.036t0.536 0.089 0.723 0.107q0.018 0.5 0.018 1.036 0 0.304-0.036 0.482-1.179 0-6.232-0.357l-0.857 0.143q-1.446 0.25-2.982 0.25z" fill="#cccccc" />
</svg>
