<?xml version="1.0" encoding="utf-8"?>
<!-- Generated by IcoMoon.io -->
<!DOCTYPE svg PUBLIC "-//W3C//DTD SVG 1.1//EN" "http://www.w3.org/Graphics/SVG/1.1/DTD/svg11.dtd">
<svg version="1.1" xmlns="http://www.w3.org/2000/svg" xmlns:xlink="http://www.w3.org/1999/xlink" width="32" height="32" viewBox="0 0 32 32">
<g>
</g>
	<path d="M24.571 25.143h0.571v-11.429h-0.571q-0.625 0-1.205-0.214t-1.116-0.661-0.893-0.821-0.875-0.964q-0.036-0.054-0.063-0.080t-0.071-0.080-0.080-0.089q-1.286-1.446-2-2.589-0.25-0.393-0.679-1.214-0.018-0.054-0.188-0.402t-0.33-0.643-0.357-0.634-0.384-0.545-0.33-0.205q-1.268 0-2.063 0.545t-0.795 1.741q0 0.768 0.268 1.509t0.589 1.214 0.589 0.982 0.268 0.866h-10.286q-0.893 0-1.589 0.688t-0.696 1.598q0 0.929 0.679 1.607t1.607 0.679h5.911q-0.268 0.304-0.446 0.848t-0.179 0.991q0 1.232 0.946 2.125-0.321 0.571-0.321 1.232t0.313 1.313 0.848 0.938q-0.071 0.429-0.071 1 0 1.518 0.866 2.25t2.42 0.732q1.5 0 3.268-0.571t3.464-1.143 2.982-0.571zM29.714 24q0-0.464-0.339-0.804t-0.804-0.339-0.804 0.339-0.339 0.804 0.339 0.804 0.804 0.339 0.804-0.339 0.339-0.804zM32 13.714v11.429q0 0.946-0.67 1.616t-1.616 0.67h-5.143q-1.054 0-3.982 1.054-3.393 1.232-5.661 1.232-2.536 0-4.107-1.384t-1.554-3.884l0.018-0.089q-1.089-1.357-1.089-3.179 0-0.393 0.054-0.768-0.589-1.018-0.661-2.125h-3.018q-1.875 0-3.223-1.357t-1.348-3.232q0-1.839 1.357-3.196t3.214-1.357h6.679q-0.393-1.071-0.393-2.286 0-2.179 1.455-3.375t3.688-1.196q0.679 0 1.241 0.313t0.982 0.884 0.723 1.125 0.661 1.286 0.589 1.107q0.625 0.982 1.786 2.304 0.036 0.054 0.25 0.304t0.339 0.384 0.366 0.384 0.429 0.402 0.402 0.321 0.42 0.25 0.384 0.080h5.143q0.946 0 1.616 0.67t0.67 1.616z" fill="#cccccc" />
</svg>
