<?xml version="1.0" encoding="utf-8"?>
<!-- Generated by IcoMoon.io -->
<!DOCTYPE svg PUBLIC "-//W3C//DTD SVG 1.1//EN" "http://www.w3.org/Graphics/SVG/1.1/DTD/svg11.dtd">
<svg version="1.1" xmlns="http://www.w3.org/2000/svg" xmlns:xlink="http://www.w3.org/1999/xlink" width="32" height="32" viewBox="0 0 32 32">
<g>
</g>
	<path d="M4.571 24q0-0.464-0.339-0.804t-0.804-0.339-0.804 0.339-0.339 0.804 0.339 0.804 0.804 0.339 0.804-0.339 0.339-0.804zM29.714 13.714q0-0.911-0.696-1.598t-1.589-0.688h-10.286q0-0.357 0.268-0.866t0.589-0.982 0.589-1.214 0.268-1.509q0-1.196-0.795-1.741t-2.063-0.545q-0.429 0-1.607 2.482-0.429 0.786-0.661 1.161-0.714 1.143-2 2.589-1.268 1.446-1.804 1.893-1.232 1.018-2.5 1.018h-0.571v11.429h0.571q1.286 0 2.982 0.571t3.455 1.143 3.205 0.571q3.375 0 3.375-2.982 0-0.464-0.089-1 0.536-0.286 0.848-0.938t0.313-1.313-0.321-1.232q0.946-0.893 0.946-2.125 0-0.446-0.179-0.991t-0.446-0.848h5.911q0.929 0 1.607-0.679t0.679-1.607zM32 13.696q0 1.875-1.348 3.232t-3.223 1.357h-3.018q-0.071 1.107-0.661 2.125 0.054 0.375 0.054 0.768 0 1.804-1.071 3.179 0.018 2.482-1.518 3.92t-4.054 1.438q-2.375 0-5.75-1.232-2.929-1.054-3.982-1.054h-5.143q-0.946 0-1.616-0.67t-0.67-1.616v-11.429q0-0.946 0.67-1.616t1.616-0.67h5.143q0.179 0 0.384-0.080t0.42-0.25 0.402-0.321 0.429-0.402 0.366-0.384 0.339-0.384 0.25-0.304q1.161-1.321 1.786-2.304 0.232-0.375 0.589-1.107t0.661-1.286 0.723-1.125 0.982-0.884 1.241-0.313q2.232 0 3.687 1.196t1.455 3.375q0 1.214-0.393 2.286h6.679q1.857 0 3.214 1.357t1.357 3.196z" fill="#cccccc" />
</svg>
