<?xml version="1.0" encoding="utf-8"?>
<!-- Generated by IcoMoon.io -->
<!DOCTYPE svg PUBLIC "-//W3C//DTD SVG 1.1//EN" "http://www.w3.org/Graphics/SVG/1.1/DTD/svg11.dtd">
<svg version="1.1" xmlns="http://www.w3.org/2000/svg" xmlns:xlink="http://www.w3.org/1999/xlink" width="32" height="32" viewBox="0 0 32 32">
<g>
</g>
	<path d="M7.214 19.786l2.714 2.714-0.929 0.929h-1v-1.714h-1.714v-1zM14.607 12.821q0.25 0.232-0.054 0.536l-5.196 5.196q-0.304 0.304-0.536 0.054-0.25-0.232 0.054-0.536l5.196-5.196q0.304-0.304 0.536-0.054zM9.714 25.143l9.714-9.714-5.143-5.143-9.714 9.714v5.143h5.143zM20.571 14.286l1.643-1.643q0.5-0.5 0.5-1.214t-0.5-1.214l-2.714-2.714q-0.5-0.5-1.214-0.5t-1.214 0.5l-1.643 1.643zM27.429 7.429v17.143q0 2.125-1.509 3.634t-3.634 1.509h-17.143q-2.125 0-3.634-1.509t-1.509-3.634v-17.143q0-2.125 1.509-3.634t3.634-1.509h17.143q2.125 0 3.634 1.509t1.509 3.634z" fill="#cccccc" />
</svg>
