<?xml version="1.0" encoding="utf-8"?>
<!-- Generated by IcoMoon.io -->
<!DOCTYPE svg PUBLIC "-//W3C//DTD SVG 1.1//EN" "http://www.w3.org/Graphics/SVG/1.1/DTD/svg11.dtd">
<svg version="1.1" xmlns="http://www.w3.org/2000/svg" xmlns:xlink="http://www.w3.org/1999/xlink" width="32" height="32" viewBox="0 0 32 32">
<g>
</g>
	<path d="M11.893 8.589q-1.071 1.643-2.446 4.875-0.393-0.804-0.661-1.295t-0.723-1.134-0.911-1.009-1.125-0.625-1.455-0.259h-4q-0.25 0-0.411-0.161t-0.161-0.411v-3.429q0-0.25 0.161-0.411t0.411-0.161h4q4.464 0 7.321 4.018zM32 22.857q0 0.25-0.161 0.411l-5.714 5.714q-0.161 0.161-0.411 0.161-0.232 0-0.402-0.17t-0.17-0.402v-3.429q-0.571 0-1.518 0.009t-1.446 0.018-1.304-0.018-1.268-0.089-1.143-0.188-1.125-0.33-1.036-0.509-1.054-0.714-0.982-0.955-1-1.241q1.054-1.661 2.429-4.875 0.393 0.804 0.661 1.295t0.723 1.134 0.911 1.009 1.125 0.625 1.455 0.259h4.571v-3.429q0-0.25 0.161-0.411t0.411-0.161q0.214 0 0.429 0.179l5.696 5.696q0.161 0.161 0.161 0.411zM32 6.857q0 0.25-0.161 0.411l-5.714 5.714q-0.161 0.161-0.411 0.161-0.232 0-0.402-0.17t-0.17-0.402v-3.429h-4.571q-0.857 0-1.554 0.268t-1.232 0.804-0.911 1.098-0.804 1.384q-0.571 1.107-1.393 3.054-0.518 1.179-0.884 1.982t-0.964 1.875-1.143 1.786-1.321 1.482-1.607 1.223-1.902 0.75-2.286 0.295h-4q-0.25 0-0.411-0.161t-0.161-0.411v-3.429q0-0.25 0.161-0.411t0.411-0.161h4q0.857 0 1.554-0.268t1.232-0.804 0.911-1.098 0.804-1.384q0.571-1.107 1.393-3.054 0.518-1.179 0.884-1.982t0.964-1.875 1.143-1.786 1.321-1.482 1.607-1.223 1.902-0.75 2.286-0.295h4.571v-3.429q0-0.25 0.161-0.411t0.411-0.161q0.214 0 0.429 0.179l5.696 5.696q0.161 0.161 0.161 0.411z" fill="#cccccc" />
</svg>
