<?xml version="1.0" encoding="utf-8"?>
<!-- Generated by IcoMoon.io -->
<!DOCTYPE svg PUBLIC "-//W3C//DTD SVG 1.1//EN" "http://www.w3.org/Graphics/SVG/1.1/DTD/svg11.dtd">
<svg version="1.1" xmlns="http://www.w3.org/2000/svg" xmlns:xlink="http://www.w3.org/1999/xlink" width="32" height="32" viewBox="0 0 32 32">
<g>
</g>
	<path d="M17.946 19.661l6.286-6.286q0.339-0.339 0.339-0.804t-0.339-0.804l-6.286-6.286q-0.536-0.554-1.232-0.25-0.714 0.304-0.714 1.054v2.857q-2.125 0-3.857 0.348t-2.902 0.911-2.036 1.411-1.366 1.705-0.795 1.946-0.384 1.991-0.089 1.973q0 3.232 2.982 7.214 0.179 0.214 0.446 0.214 0.125 0 0.232-0.054 0.393-0.161 0.339-0.589-0.786-6.321 1.107-8.446 0.821-0.929 2.321-1.348t4-0.42v2.857q0 0.75 0.714 1.054 0.214 0.089 0.429 0.089 0.464 0 0.804-0.339zM27.429 7.429v17.143q0 2.125-1.509 3.634t-3.634 1.509h-17.143q-2.125 0-3.634-1.509t-1.509-3.634v-17.143q0-2.125 1.509-3.634t3.634-1.509h17.143q2.125 0 3.634 1.509t1.509 3.634z" fill="#cccccc" />
</svg>
