<?xml version="1.0" encoding="utf-8"?>
<!-- Generated by IcoMoon.io -->
<!DOCTYPE svg PUBLIC "-//W3C//DTD SVG 1.1//EN" "http://www.w3.org/Graphics/SVG/1.1/DTD/svg11.dtd">
<svg version="1.1" xmlns="http://www.w3.org/2000/svg" xmlns:xlink="http://www.w3.org/1999/xlink" width="32" height="32" viewBox="0 0 32 32">
<g>
</g>
	<path d="M17.143 4.571q0-0.464-0.339-0.804t-0.804-0.339-0.804 0.339-0.339 0.804 0.339 0.804 0.804 0.339 0.804-0.339 0.339-0.804zM32 21.143v6.286q0 0.393-0.357 0.536-0.143 0.036-0.214 0.036-0.232 0-0.411-0.161l-1.661-1.661q-2.125 2.554-5.688 4.045t-7.67 1.491-7.67-1.491-5.688-4.045l-1.661 1.661q-0.161 0.161-0.411 0.161-0.071 0-0.214-0.036-0.357-0.143-0.357-0.536v-6.286q0-0.25 0.161-0.411t0.411-0.161h6.286q0.393 0 0.536 0.357 0.143 0.339-0.125 0.625l-1.786 1.786q1.196 1.625 3.384 2.741t4.848 1.473v-11.554h-3.429q-0.464 0-0.804-0.339t-0.339-0.804v-2.286q0-0.464 0.339-0.804t0.804-0.339h3.429v-2.911q-1.036-0.607-1.661-1.652t-0.625-2.295q0-1.893 1.339-3.232t3.232-1.339 3.232 1.339 1.339 3.232q0 1.25-0.625 2.295t-1.661 1.652v2.911h3.429q0.464 0 0.804 0.339t0.339 0.804v2.286q0 0.464-0.339 0.804t-0.804 0.339h-3.429v11.554q2.661-0.357 4.848-1.473t3.384-2.741l-1.786-1.786q-0.268-0.286-0.125-0.625 0.143-0.357 0.536-0.357h6.286q0.25 0 0.411 0.161t0.161 0.411z" fill="#666666" />
</svg>
