<?xml version="1.0" encoding="utf-8"?>
<!-- Generated by IcoMoon.io -->
<!DOCTYPE svg PUBLIC "-//W3C//DTD SVG 1.1//EN" "http://www.w3.org/Graphics/SVG/1.1/DTD/svg11.dtd">
<svg version="1.1" xmlns="http://www.w3.org/2000/svg" xmlns:xlink="http://www.w3.org/1999/xlink" width="18" height="32" viewBox="0 0 18 32">
<g>
</g>
	<path d="M10.768 27.429h-3.071q-0.232 0-0.402-0.161t-0.17-0.411v-5.893h-5.143q-0.232 0-0.402-0.161t-0.17-0.411v-1.839q0-0.232 0.17-0.402t0.402-0.17h5.143v-1.518h-5.143q-0.232 0-0.402-0.161t-0.17-0.411v-1.857q0-0.232 0.17-0.402t0.402-0.17h3.821l-5.732-10.321q-0.143-0.286 0-0.571 0.179-0.286 0.5-0.286h3.464q0.339 0 0.518 0.321l3.839 7.589q0.339 0.679 1 2.232 0.179-0.429 0.545-1.214t0.491-1.089l3.411-7.5q0.143-0.339 0.518-0.339h3.411q0.304 0 0.482 0.286 0.161 0.25 0.018 0.554l-5.589 10.339h3.839q0.232 0 0.402 0.17t0.17 0.402v1.857q0 0.25-0.17 0.411t-0.402 0.161h-5.179v1.518h5.179q0.232 0 0.402 0.17t0.17 0.402v1.839q0 0.25-0.17 0.411t-0.402 0.161h-5.179v5.893q0 0.232-0.17 0.402t-0.402 0.17z" fill="#666666" />
</svg>
