<?xml version="1.0" encoding="utf-8"?>
<!-- Generated by IcoMoon.io -->
<!DOCTYPE svg PUBLIC "-//W3C//DTD SVG 1.1//EN" "http://www.w3.org/Graphics/SVG/1.1/DTD/svg11.dtd">
<svg version="1.1" xmlns="http://www.w3.org/2000/svg" xmlns:xlink="http://www.w3.org/1999/xlink" width="32" height="32" viewBox="0 0 32 32">
<g>
</g>
	<path d="M6.857 20.571q0-0.946-0.67-1.616t-1.616-0.67-1.616 0.67-0.67 1.616 0.67 1.616 1.616 0.67 1.616-0.67 0.67-1.616zM10.286 12.571q0-0.946-0.67-1.616t-1.616-0.67-1.616 0.67-0.67 1.616 0.67 1.616 1.616 0.67 1.616-0.67 0.67-1.616zM17.929 21.161l1.804-6.821q0.107-0.464-0.134-0.866t-0.688-0.527-0.857 0.116-0.536 0.705l-1.804 6.821q-1.071 0.089-1.911 0.777t-1.125 1.759q-0.357 1.375 0.357 2.607t2.089 1.589 2.607-0.357 1.589-2.089q0.286-1.071-0.107-2.089t-1.286-1.625zM29.714 20.571q0-0.946-0.67-1.616t-1.616-0.67-1.616 0.67-0.67 1.616 0.67 1.616 1.616 0.67 1.616-0.67 0.67-1.616zM18.286 9.143q0-0.946-0.67-1.616t-1.616-0.67-1.616 0.67-0.67 1.616 0.67 1.616 1.616 0.67 1.616-0.67 0.67-1.616zM26.286 12.571q0-0.946-0.67-1.616t-1.616-0.67-1.616 0.67-0.67 1.616 0.67 1.616 1.616 0.67 1.616-0.67 0.67-1.616zM32 20.571q0 4.661-2.518 8.625-0.339 0.518-0.964 0.518h-25.036q-0.625 0-0.964-0.518-2.518-3.946-2.518-8.625 0-3.25 1.268-6.214t3.411-5.107 5.107-3.411 6.214-1.268 6.214 1.268 5.107 3.411 3.411 5.107 1.268 6.214z" fill="#666666" />
</svg>
