<?xml version="1.0" encoding="utf-8"?>
<!-- Generated by IcoMoon.io -->
<!DOCTYPE svg PUBLIC "-//W3C//DTD SVG 1.1//EN" "http://www.w3.org/Graphics/SVG/1.1/DTD/svg11.dtd">
<svg version="1.1" xmlns="http://www.w3.org/2000/svg" xmlns:xlink="http://www.w3.org/1999/xlink" width="34" height="32" viewBox="0 0 34 32">
<g>
</g>
	<path d="M34.286 17.143q-0.018 0.571-5.143 1.714l-6.286 0.571-4 1.143h-1.143l-5.232 6.286h1.232q0.464 0 0.804 0.080t0.339 0.205-0.339 0.205-0.804 0.080h-5.714v-0.571h1.143v-7.429h-2.857l-3.429 4h-1.714l-0.571-0.571v-3.429h0.571v-0.571h2.286v-0.143l-3.429-0.429v-2.286l3.429-0.429v-0.143h-2.286v-0.571h-0.571v-3.429l0.571-0.571h1.714l3.429 4h2.857v-7.429h-1.143v-0.571h5.714q0.464 0 0.804 0.080t0.339 0.205-0.339 0.205-0.804 0.080h-1.232l5.232 6.286h1.143l4 1.143 6.286 0.571q4.661 1.036 5.125 1.661z" fill="#666666" />
</svg>
