<?xml version="1.0" encoding="utf-8"?>
<!-- Generated by IcoMoon.io -->
<!DOCTYPE svg PUBLIC "-//W3C//DTD SVG 1.1//EN" "http://www.w3.org/Graphics/SVG/1.1/DTD/svg11.dtd">
<svg version="1.1" xmlns="http://www.w3.org/2000/svg" xmlns:xlink="http://www.w3.org/1999/xlink" width="32" height="32" viewBox="0 0 32 32">
<g>
</g>
	<path d="M4.571 23.429v3.429q0 0.232-0.17 0.402t-0.402 0.17h-3.429q-0.232 0-0.402-0.17t-0.17-0.402v-3.429q0-0.232 0.17-0.402t0.402-0.17h3.429q0.232 0 0.402 0.17t0.17 0.402zM4.571 16.571v3.429q0 0.232-0.17 0.402t-0.402 0.17h-3.429q-0.232 0-0.402-0.17t-0.17-0.402v-3.429q0-0.232 0.17-0.402t0.402-0.17h3.429q0.232 0 0.402 0.17t0.17 0.402zM4.571 9.714v3.429q0 0.232-0.17 0.402t-0.402 0.17h-3.429q-0.232 0-0.402-0.17t-0.17-0.402v-3.429q0-0.232 0.17-0.402t0.402-0.17h3.429q0.232 0 0.402 0.17t0.17 0.402zM32 23.429v3.429q0 0.232-0.17 0.402t-0.402 0.17h-24q-0.232 0-0.402-0.17t-0.17-0.402v-3.429q0-0.232 0.17-0.402t0.402-0.17h24q0.232 0 0.402 0.17t0.17 0.402zM4.571 2.857v3.429q0 0.232-0.17 0.402t-0.402 0.17h-3.429q-0.232 0-0.402-0.17t-0.17-0.402v-3.429q0-0.232 0.17-0.402t0.402-0.17h3.429q0.232 0 0.402 0.17t0.17 0.402zM32 16.571v3.429q0 0.232-0.17 0.402t-0.402 0.17h-24q-0.232 0-0.402-0.17t-0.17-0.402v-3.429q0-0.232 0.17-0.402t0.402-0.17h24q0.232 0 0.402 0.17t0.17 0.402zM32 9.714v3.429q0 0.232-0.17 0.402t-0.402 0.17h-24q-0.232 0-0.402-0.17t-0.17-0.402v-3.429q0-0.232 0.17-0.402t0.402-0.17h24q0.232 0 0.402 0.17t0.17 0.402zM32 2.857v3.429q0 0.232-0.17 0.402t-0.402 0.17h-24q-0.232 0-0.402-0.17t-0.17-0.402v-3.429q0-0.232 0.17-0.402t0.402-0.17h24q0.232 0 0.402 0.17t0.17 0.402z" fill="#666666" />
</svg>
