<?xml version="1.0" encoding="utf-8"?>
<!-- Generated by IcoMoon.io -->
<!DOCTYPE svg PUBLIC "-//W3C//DTD SVG 1.1//EN" "http://www.w3.org/Graphics/SVG/1.1/DTD/svg11.dtd">
<svg version="1.1" xmlns="http://www.w3.org/2000/svg" xmlns:xlink="http://www.w3.org/1999/xlink" width="32" height="32" viewBox="0 0 32 32">
<g>
</g>
	<path d="M20.232 28.036q-3.054 1.679-6.571 1.679-3.5 0-6.554-1.679 2.464-1.554 4.205-3.768t2.348-4.786q0.625 2.571 2.366 4.786t4.205 3.768zM11.393 2.536v8.661q0 4.5-2.259 8.205t-5.902 5.473q-3.232-3.839-3.232-8.839 0-3.339 1.491-6.241t4.098-4.813 5.804-2.446zM27.429 16.036q0 5-3.232 8.839-3.643-1.768-5.902-5.473t-2.259-8.205v-8.661q3.196 0.536 5.804 2.446t4.098 4.813 1.491 6.241z" fill="#666666" />
</svg>
