<?xml version="1.0" encoding="utf-8"?>
<!-- Generated by IcoMoon.io -->
<!DOCTYPE svg PUBLIC "-//W3C//DTD SVG 1.1//EN" "http://www.w3.org/Graphics/SVG/1.1/DTD/svg11.dtd">
<svg version="1.1" xmlns="http://www.w3.org/2000/svg" xmlns:xlink="http://www.w3.org/1999/xlink" width="30" height="32" viewBox="0 0 30 32">
<g>
</g>
	<path d="M21.179 17.089l4.589-4.464-7.536-1.107-0.536-1.071-2.839-5.75v17.196l1.054 0.554 5.679 3-1.071-6.339-0.214-1.179zM29.25 12.411l-6.482 6.321 1.536 8.929q0.089 0.589-0.107 0.92t-0.607 0.33q-0.304 0-0.714-0.214l-8.018-4.214-8.018 4.214q-0.411 0.214-0.714 0.214-0.411 0-0.607-0.33t-0.107-0.92l1.536-8.929-6.5-6.321q-0.571-0.571-0.411-1.063t0.964-0.616l8.964-1.304 4.018-8.125q0.357-0.732 0.875-0.732 0.5 0 0.875 0.732l4.018 8.125 8.964 1.304q0.804 0.125 0.964 0.616t-0.429 1.063z" fill="#666666" />
</svg>
