<?xml version="1.0" encoding="utf-8"?>
<!-- Generated by IcoMoon.io -->
<!DOCTYPE svg PUBLIC "-//W3C//DTD SVG 1.1//EN" "http://www.w3.org/Graphics/SVG/1.1/DTD/svg11.dtd">
<svg version="1.1" xmlns="http://www.w3.org/2000/svg" xmlns:xlink="http://www.w3.org/1999/xlink" width="32" height="32" viewBox="0 0 32 32">
<g>
</g>
	<path d="M16.018 24.446v2.982h-4.429l-2.839-4.5-0.429-0.75q-0.143-0.161-0.196-0.375h-0.054l-0.161 0.375q-0.179 0.357-0.446 0.786l-2.768 4.464h-4.607v-2.982h2.286l3.518-5.196-3.304-4.857h-2.446v-3h4.929l2.482 4.071q0.036 0.071 0.411 0.75 0.143 0.161 0.196 0.375h0.054q0.054-0.161 0.196-0.375l0.446-0.75 2.5-4.071h4.589v3h-2.232l-3.286 4.768 3.643 5.286h1.946zM27.429 28.321v3.679h-9.179l-0.071-0.482q-0.054-0.804-0.054-0.821 0-1.143 0.464-2.089t1.161-1.545 1.5-1.161 1.5-0.973 1.161-0.964 0.464-1.143q0-0.679-0.527-1.116t-1.259-0.438q-0.911 0-1.732 0.696-0.25 0.196-0.643 0.679l-1.875-1.643q0.464-0.661 1.125-1.179 1.429-1.161 3.357-1.161 1.964 0 3.179 1.063t1.214 2.83q0 1.179-0.616 2.116t-1.5 1.536-1.777 1.116-1.554 1.125-0.732 1.304h4.143v-1.429h2.25z" fill="#666666" />
</svg>
