<?xml version="1.0" encoding="utf-8"?>
<!-- Generated by IcoMoon.io -->
<!DOCTYPE svg PUBLIC "-//W3C//DTD SVG 1.1//EN" "http://www.w3.org/Graphics/SVG/1.1/DTD/svg11.dtd">
<svg version="1.1" xmlns="http://www.w3.org/2000/svg" xmlns:xlink="http://www.w3.org/1999/xlink" width="32" height="32" viewBox="0 0 32 32">
<g>
</g>
	<path d="M1.446 2.304l0.964 0.482q0.357 0.089 3.768 0.089h2.321l0.339-0.054 2.054-0.018 3.839 0.018h5.232l0.607 0.036q0.25 0.018 0.5-0.125t0.375-0.286l0.125-0.143 0.75-0.018q0.268 0 0.5 0.018v1.866t0.018 2.348l0.018 1.786-0.018 1.036q0 0.571-0.071 0.911-0.696 0.268-1.214 0.321-0.446-0.768-0.964-2.286-0.143-0.429-0.277-1.116t-0.205-1.17-0.107-0.518q-0.232-0.268-0.482-0.339-0.125-0.036-0.759-0.036t-1.848 0.018-1.982 0.018q-0.607 0-1.196 0.089-0.179 1.732-0.143 2.429l0.018 2.714v5.929l0.054 6.411-0.018 2.625q-0.018 0.821 0.196 1.518 0.875 0.446 1.589 0.571 0.036 0 0.321 0.089t0.786 0.232 0.768 0.214q0.536 0.143 0.893 0.321 0.089 0.804 0.089 0.893 0 0.179-0.054 0.518-0.25 0.018-0.607 0.018-1.964 0-3.339-0.179-1.286-0.143-4.25-0.143-1.571 0-4.161 0.25-0.857 0.071-1.25 0.071-0.036-0.393-0.036-0.464l-0.018-0.464v-0.161q0.375-0.589 1.411-0.875 2.482-0.679 2.839-0.893 0.161-0.375 0.214-1 0.143-3.429 0.107-7.732l-0.089-7.643q-0.018-1.107-0.009-2.116t0.009-1.83-0.036-1.018-0.107-0.268q-0.107-0.089-0.25-0.107-0.679-0.107-2.643-0.107-0.768 0-1.786 0.241t-1.304 0.438q-0.232 0.161-0.393 0.589t-0.393 1.339-0.429 1.5q-0.107 0.339-0.348 0.571t-0.366 0.232q-0.786-0.482-1-0.786v-6.839zM31.143 25.143q0.589 0 0.75 0.33t-0.196 0.795l-2.25 2.893q-0.357 0.464-0.875 0.464t-0.875-0.464l-2.25-2.893q-0.357-0.464-0.196-0.795t0.75-0.33h1.429v-18.286h-1.429q-0.589 0-0.75-0.33t0.196-0.795l2.25-2.893q0.357-0.464 0.875-0.464t0.875 0.464l2.25 2.893q0.357 0.464 0.196 0.795t-0.75 0.33h-1.429v18.286h1.429z" fill="#666666" />
</svg>
