<?xml version="1.0" encoding="utf-8"?>
<!-- Generated by IcoMoon.io -->
<!DOCTYPE svg PUBLIC "-//W3C//DTD SVG 1.1//EN" "http://www.w3.org/Graphics/SVG/1.1/DTD/svg11.dtd">
<svg version="1.1" xmlns="http://www.w3.org/2000/svg" xmlns:xlink="http://www.w3.org/1999/xlink" width="18" height="32" viewBox="0 0 18 32">
<g>
</g>
	<path d="M6.964 2.286h3.911v6.929h6.5v4.304h-6.5v7.036q0 2.429 0.25 3.071 0.232 0.661 0.929 1.071 0.893 0.554 2.089 0.554 2.089 0 4.143-1.357v4.321q-1.821 0.857-3.179 1.161-1.375 0.339-3.089 0.339-1.875 0-3.321-0.482-1.393-0.446-2.464-1.339-1.036-0.911-1.411-1.875-0.393-0.964-0.393-2.875v-9.625h-3.036v-3.875q1.625-0.536 2.768-1.5 1.143-0.982 1.839-2.357t0.964-3.5z" fill="#666666" />
</svg>
