<?xml version="1.0" encoding="utf-8"?>
<!-- Generated by IcoMoon.io -->
<!DOCTYPE svg PUBLIC "-//W3C//DTD SVG 1.1//EN" "http://www.w3.org/Graphics/SVG/1.1/DTD/svg11.dtd">
<svg version="1.1" xmlns="http://www.w3.org/2000/svg" xmlns:xlink="http://www.w3.org/1999/xlink" width="32" height="32" viewBox="0 0 32 32">
<g>
</g>
	<path d="M20.571 16q0 0.25-0.161 0.411l-5.714 5.714q-0.161 0.161-0.411 0.161-0.232 0-0.402-0.17t-0.17-0.402v-3.429h-6.286q-0.232 0-0.402-0.17t-0.17-0.402v-3.429q0-0.232 0.17-0.402t0.402-0.17h6.286v-3.429q0-0.25 0.161-0.411t0.411-0.161q0.214 0 0.429 0.179l5.696 5.696q0.161 0.161 0.161 0.411zM23.429 16q0-2.643-1.304-4.875t-3.536-3.536-4.875-1.304-4.875 1.304-3.536 3.536-1.304 4.875 1.304 4.875 3.536 3.536 4.875 1.304 4.875-1.304 3.536-3.536 1.304-4.875zM27.429 16q0 3.732-1.839 6.884t-4.991 4.991-6.884 1.839-6.884-1.839-4.991-4.991-1.839-6.884 1.839-6.884 4.991-4.991 6.884-1.839 6.884 1.839 4.991 4.991 1.839 6.884z" fill="#ffffff" />
</svg>
