<?xml version="1.0" encoding="utf-8"?>
<!-- Generated by IcoMoon.io -->
<!DOCTYPE svg PUBLIC "-//W3C//DTD SVG 1.1//EN" "http://www.w3.org/Graphics/SVG/1.1/DTD/svg11.dtd">
<svg version="1.1" xmlns="http://www.w3.org/2000/svg" xmlns:xlink="http://www.w3.org/1999/xlink" width="23" height="32" viewBox="0 0 23 32">
<g>
</g>
	<path d="M20.571 4.571h-18.286v22.179l9.143-8.768 1.589 1.518 7.554 7.25v-22.179zM20.786 2.286q0.411 0 0.786 0.161 0.589 0.232 0.938 0.732t0.348 1.107v23.018q0 0.607-0.348 1.107t-0.938 0.732q-0.339 0.143-0.786 0.143-0.857 0-1.482-0.571l-7.875-7.571-7.875 7.571q-0.643 0.589-1.482 0.589-0.411 0-0.786-0.161-0.589-0.232-0.938-0.732t-0.348-1.107v-23.018q0-0.607 0.348-1.107t0.938-0.732q0.375-0.161 0.786-0.161h18.714z" fill="#ffffff" />
</svg>
