<?xml version="1.0" encoding="utf-8"?>
<!-- Generated by IcoMoon.io -->
<!DOCTYPE svg PUBLIC "-//W3C//DTD SVG 1.1//EN" "http://www.w3.org/Graphics/SVG/1.1/DTD/svg11.dtd">
<svg version="1.1" xmlns="http://www.w3.org/2000/svg" xmlns:xlink="http://www.w3.org/1999/xlink" width="25" height="32" viewBox="0 0 25 32">
<g>
</g>
	<path d="M6.857 23.429v1.143q0 0.232-0.17 0.402t-0.402 0.17h-1.143q-0.232 0-0.402-0.17t-0.17-0.402v-1.143q0-0.232 0.17-0.402t0.402-0.17h1.143q0.232 0 0.402 0.17t0.17 0.402zM6.857 18.857v1.143q0 0.232-0.17 0.402t-0.402 0.17h-1.143q-0.232 0-0.402-0.17t-0.17-0.402v-1.143q0-0.232 0.17-0.402t0.402-0.17h1.143q0.232 0 0.402 0.17t0.17 0.402zM11.429 18.857v1.143q0 0.232-0.17 0.402t-0.402 0.17h-1.143q-0.232 0-0.402-0.17t-0.17-0.402v-1.143q0-0.232 0.17-0.402t0.402-0.17h1.143q0.232 0 0.402 0.17t0.17 0.402zM6.857 14.286v1.143q0 0.232-0.17 0.402t-0.402 0.17h-1.143q-0.232 0-0.402-0.17t-0.17-0.402v-1.143q0-0.232 0.17-0.402t0.402-0.17h1.143q0.232 0 0.402 0.17t0.17 0.402zM20.571 23.429v1.143q0 0.232-0.17 0.402t-0.402 0.17h-1.143q-0.232 0-0.402-0.17t-0.17-0.402v-1.143q0-0.232 0.17-0.402t0.402-0.17h1.143q0.232 0 0.402 0.17t0.17 0.402zM16 18.857v1.143q0 0.232-0.17 0.402t-0.402 0.17h-1.143q-0.232 0-0.402-0.17t-0.17-0.402v-1.143q0-0.232 0.17-0.402t0.402-0.17h1.143q0.232 0 0.402 0.17t0.17 0.402zM11.429 14.286v1.143q0 0.232-0.17 0.402t-0.402 0.17h-1.143q-0.232 0-0.402-0.17t-0.17-0.402v-1.143q0-0.232 0.17-0.402t0.402-0.17h1.143q0.232 0 0.402 0.17t0.17 0.402zM6.857 9.714v1.143q0 0.232-0.17 0.402t-0.402 0.17h-1.143q-0.232 0-0.402-0.17t-0.17-0.402v-1.143q0-0.232 0.17-0.402t0.402-0.17h1.143q0.232 0 0.402 0.17t0.17 0.402zM20.571 18.857v1.143q0 0.232-0.17 0.402t-0.402 0.17h-1.143q-0.232 0-0.402-0.17t-0.17-0.402v-1.143q0-0.232 0.17-0.402t0.402-0.17h1.143q0.232 0 0.402 0.17t0.17 0.402zM16 14.286v1.143q0 0.232-0.17 0.402t-0.402 0.17h-1.143q-0.232 0-0.402-0.17t-0.17-0.402v-1.143q0-0.232 0.17-0.402t0.402-0.17h1.143q0.232 0 0.402 0.17t0.17 0.402zM11.429 9.714v1.143q0 0.232-0.17 0.402t-0.402 0.17h-1.143q-0.232 0-0.402-0.17t-0.17-0.402v-1.143q0-0.232 0.17-0.402t0.402-0.17h1.143q0.232 0 0.402 0.17t0.17 0.402zM6.857 5.143v1.143q0 0.232-0.17 0.402t-0.402 0.17h-1.143q-0.232 0-0.402-0.17t-0.17-0.402v-1.143q0-0.232 0.17-0.402t0.402-0.17h1.143q0.232 0 0.402 0.17t0.17 0.402zM20.571 14.286v1.143q0 0.232-0.17 0.402t-0.402 0.17h-1.143q-0.232 0-0.402-0.17t-0.17-0.402v-1.143q0-0.232 0.17-0.402t0.402-0.17h1.143q0.232 0 0.402 0.17t0.17 0.402zM16 9.714v1.143q0 0.232-0.17 0.402t-0.402 0.17h-1.143q-0.232 0-0.402-0.17t-0.17-0.402v-1.143q0-0.232 0.17-0.402t0.402-0.17h1.143q0.232 0 0.402 0.17t0.17 0.402zM11.429 5.143v1.143q0 0.232-0.17 0.402t-0.402 0.17h-1.143q-0.232 0-0.402-0.17t-0.17-0.402v-1.143q0-0.232 0.17-0.402t0.402-0.17h1.143q0.232 0 0.402 0.17t0.17 0.402zM20.571 9.714v1.143q0 0.232-0.17 0.402t-0.402 0.17h-1.143q-0.232 0-0.402-0.17t-0.17-0.402v-1.143q0-0.232 0.17-0.402t0.402-0.17h1.143q0.232 0 0.402 0.17t0.17 0.402zM16 5.143v1.143q0 0.232-0.17 0.402t-0.402 0.17h-1.143q-0.232 0-0.402-0.17t-0.17-0.402v-1.143q0-0.232 0.17-0.402t0.402-0.17h1.143q0.232 0 0.402 0.17t0.17 0.402zM20.571 5.143v1.143q0 0.232-0.17 0.402t-0.402 0.17h-1.143q-0.232 0-0.402-0.17t-0.17-0.402v-1.143q0-0.232 0.17-0.402t0.402-0.17h1.143q0.232 0 0.402 0.17t0.17 0.402zM16 29.714h6.857v-27.429h-20.571v27.429h6.857v-4q0-0.232 0.17-0.402t0.402-0.17h5.714q0.232 0 0.402 0.17t0.17 0.402v4zM25.143 1.143v29.714q0 0.464-0.339 0.804t-0.804 0.339h-22.857q-0.464 0-0.804-0.339t-0.339-0.804v-29.714q0-0.464 0.339-0.804t0.804-0.339h22.857q0.464 0 0.804 0.339t0.339 0.804z" fill="#ffffff" />
</svg>
