<?xml version="1.0" encoding="utf-8"?>
<!-- Generated by IcoMoon.io -->
<!DOCTYPE svg PUBLIC "-//W3C//DTD SVG 1.1//EN" "http://www.w3.org/Graphics/SVG/1.1/DTD/svg11.dtd">
<svg version="1.1" xmlns="http://www.w3.org/2000/svg" xmlns:xlink="http://www.w3.org/1999/xlink" width="32" height="32" viewBox="0 0 32 32">
<g>
</g>
	<path d="M16 6.857q-3.643 0-6.813 1.241t-5.036 3.348-1.866 4.554q0 2 1.277 3.813t3.598 3.134l1.554 0.893-0.482 1.714q-0.429 1.625-1.25 3.071 2.714-1.125 4.911-3.054l0.768-0.679 1.018 0.107q1.232 0.143 2.321 0.143 3.643 0 6.812-1.241t5.036-3.348 1.866-4.554-1.866-4.554-5.036-3.348-6.813-1.241zM32 16q0 3.107-2.143 5.741t-5.821 4.161-8.036 1.527q-1.25 0-2.589-0.143-3.536 3.125-8.214 4.321-0.875 0.25-2.036 0.393h-0.089q-0.268 0-0.482-0.188t-0.286-0.491v-0.018q-0.054-0.071-0.009-0.214t0.036-0.179 0.080-0.17l0.107-0.161t0.125-0.152 0.143-0.161q0.125-0.143 0.554-0.616t0.616-0.679 0.554-0.705 0.58-0.911 0.482-1.054 0.464-1.357q-2.804-1.589-4.42-3.929t-1.616-5.018q0-3.107 2.143-5.741t5.821-4.161 8.036-1.527 8.036 1.527 5.821 4.161 2.143 5.741z" fill="#ffffff" />
</svg>
