<?xml version="1.0" encoding="utf-8"?>
<!-- Generated by IcoMoon.io -->
<!DOCTYPE svg PUBLIC "-//W3C//DTD SVG 1.1//EN" "http://www.w3.org/Graphics/SVG/1.1/DTD/svg11.dtd">
<svg version="1.1" xmlns="http://www.w3.org/2000/svg" xmlns:xlink="http://www.w3.org/1999/xlink" width="25" height="32" viewBox="0 0 25 32">
<g>
</g>
	<path d="M25.143 30.286v1.143q0 0.232-0.17 0.402t-0.402 0.17h-24q-0.232 0-0.402-0.17t-0.17-0.402v-1.143q0-0.232 0.17-0.402t0.402-0.17h24q0.232 0 0.402 0.17t0.17 0.402zM20.571 11.429q0 1.393-0.438 2.571t-1.143 2.009-1.563 1.571-1.714 1.384-1.563 1.286-1.143 1.455-0.438 1.723q0 1.714 1.196 4l-0.071-0.018 0.018 0.018q-1.607-0.732-2.857-1.482t-2.473-1.786-2.027-2.188-1.295-2.688-0.491-3.286q0-1.393 0.438-2.571t1.143-2.009 1.563-1.571 1.714-1.384 1.563-1.286 1.143-1.455 0.438-1.723q0-1.679-1.179-4l0.054 0.018-0.018-0.018q1.607 0.732 2.857 1.482t2.473 1.786 2.027 2.188 1.295 2.688 0.491 3.286z" fill="#ffffff" />
</svg>
