<?xml version="1.0" encoding="utf-8"?>
<!-- Generated by IcoMoon.io -->
<!DOCTYPE svg PUBLIC "-//W3C//DTD SVG 1.1//EN" "http://www.w3.org/Graphics/SVG/1.1/DTD/svg11.dtd">
<svg version="1.1" xmlns="http://www.w3.org/2000/svg" xmlns:xlink="http://www.w3.org/1999/xlink" width="32" height="32" viewBox="0 0 32 32">
<g>
</g>
	<path d="M18.571 21.714q0 0.589-0.42 1.009t-1.009 0.42-1.009-0.42-0.42-1.009 0.42-1.009 1.009-0.42 1.009 0.42 0.42 1.009zM23.143 21.714q0 0.589-0.42 1.009t-1.009 0.42-1.009-0.42-0.42-1.009 0.42-1.009 1.009-0.42 1.009 0.42 0.42 1.009zM25.143 24.571v-5.714q0-0.232-0.17-0.402t-0.402-0.17h-21.714q-0.232 0-0.402 0.17t-0.17 0.402v5.714q0 0.232 0.17 0.402t0.402 0.17h21.714q0.232 0 0.402-0.17t0.17-0.402zM3.179 16h21.071l-2.804-8.607q-0.071-0.232-0.286-0.384t-0.464-0.152h-13.964q-0.25 0-0.464 0.152t-0.286 0.384zM27.429 18.857v5.714q0 1.179-0.839 2.018t-2.018 0.839h-21.714q-1.179 0-2.018-0.839t-0.839-2.018v-5.714q0-0.446 0.286-1.339l3.518-10.821q0.304-0.946 1.125-1.536t1.804-0.589h13.964q0.982 0 1.804 0.589t1.125 1.536l3.518 10.821q0.286 0.893 0.286 1.339z" fill="#ffffff" />
</svg>
