<?xml version="1.0" encoding="utf-8"?>
<!-- Generated by IcoMoon.io -->
<!DOCTYPE svg PUBLIC "-//W3C//DTD SVG 1.1//EN" "http://www.w3.org/Graphics/SVG/1.1/DTD/svg11.dtd">
<svg version="1.1" xmlns="http://www.w3.org/2000/svg" xmlns:xlink="http://www.w3.org/1999/xlink" width="30" height="32" viewBox="0 0 30 32">
<g>
</g>
	<path d="M29.714 15.821q0 2.964-1.071 5.607l-0.357 0.875-3.304 0.589q-0.393 1.482-1.616 2.438t-2.795 0.955v0.571q0 0.25-0.161 0.411t-0.411 0.161h-1.143q-0.25 0-0.411-0.161t-0.161-0.411v-10.286q0-0.25 0.161-0.411t0.411-0.161h1.143q0.25 0 0.411 0.161t0.161 0.411v0.571q1.268 0 2.321 0.634t1.661 1.705l1.214-0.214q0.518-1.696 0.518-3.446 0-2.643-1.571-4.982t-4.223-3.732-5.634-1.393-5.634 1.393-4.223 3.732-1.571 4.982q0 1.75 0.518 3.446l1.214 0.214q0.607-1.071 1.661-1.705t2.321-0.634v-0.571q0-0.25 0.161-0.411t0.411-0.161h1.143q0.25 0 0.411 0.161t0.161 0.411v10.286q0 0.25-0.161 0.411t-0.411 0.161h-1.143q-0.25 0-0.411-0.161t-0.161-0.411v-0.571q-1.571 0-2.795-0.955t-1.616-2.438l-3.304-0.589-0.357-0.875q-1.071-2.643-1.071-5.607 0-2.696 1.196-5.196t3.196-4.33 4.75-2.92 5.714-1.089 5.714 1.089 4.75 2.92 3.196 4.33 1.196 5.196z" fill="#ffffff" />
</svg>
