<?xml version="1.0" encoding="utf-8"?>
<!-- Generated by IcoMoon.io -->
<!DOCTYPE svg PUBLIC "-//W3C//DTD SVG 1.1//EN" "http://www.w3.org/Graphics/SVG/1.1/DTD/svg11.dtd">
<svg version="1.1" xmlns="http://www.w3.org/2000/svg" xmlns:xlink="http://www.w3.org/1999/xlink" width="32" height="32" viewBox="0 0 32 32">
<g>
</g>
	<path d="M26.286 16q0-2.089-0.813-3.991t-2.196-3.286-3.286-2.196-3.991-0.813-3.991 0.813-3.286 2.196-2.196 3.286-0.813 3.991 0.813 3.991 2.196 3.286 3.286 2.196 3.991 0.813 3.991-0.813 3.286-2.196 2.196-3.286 0.813-3.991zM31.214 20.946q-0.071 0.268-0.357 0.357l-5.214 1.714v5.464q0 0.286-0.232 0.464-0.268 0.179-0.518 0.071l-5.214-1.679-3.214 4.429q-0.179 0.232-0.464 0.232t-0.464-0.232l-3.214-4.429-5.214 1.679q-0.25 0.107-0.518-0.071-0.232-0.179-0.232-0.464v-5.464l-5.214-1.714q-0.286-0.089-0.357-0.357-0.089-0.304 0.071-0.518l3.214-4.429-3.214-4.429q-0.161-0.232-0.071-0.518 0.071-0.268 0.357-0.357l5.214-1.714v-5.464q0-0.286 0.232-0.464 0.268-0.179 0.518-0.071l5.214 1.679 3.214-4.429q0.161-0.214 0.464-0.214t0.464 0.214l3.214 4.429 5.214-1.679q0.25-0.107 0.518 0.071 0.232 0.179 0.232 0.464v5.464l5.214 1.714q0.286 0.089 0.357 0.357 0.089 0.286-0.071 0.518l-3.214 4.429 3.214 4.429q0.161 0.214 0.071 0.518z" fill="#ffffff" />
</svg>
